<mxfile host="Electron" modified="2024-10-03T06:16:34.648Z" agent="Mozilla/5.0 (Windows NT 10.0; Win64; x64) AppleWebKit/537.36 (KHTML, like Gecko) draw.io/22.1.2 Chrome/114.0.5735.289 Electron/25.9.4 Safari/537.36" etag="_JdI1OMkj-5NXyhPLpOq" version="22.1.2" type="device" pages="3">
  <diagram name="arch_network" id="2H396WTtOHhJqNTtPUAT">
    <mxGraphModel dx="780" dy="1665" grid="1" gridSize="10" guides="1" tooltips="1" connect="1" arrows="1" fold="1" page="1" pageScale="1" pageWidth="827" pageHeight="1169" math="0" shadow="0">
      <root>
        <mxCell id="0" />
        <mxCell id="1" parent="0" />
        <mxCell id="h9SwQM1gShD4SIfXYJDy-1" value="" style="rounded=1;whiteSpace=wrap;html=1;fontFamily=VK Sans Display;strokeColor=none;arcsize=12;fillColor=#FFFFFF;spacing=0;spacingTop=12;spacingBottom=12;arcSize=12;absoluteArcSize=1;fontSize=14;fontColor=#212121;" parent="1" vertex="1">
          <mxGeometry x="30" y="-1150" width="1231" height="950" as="geometry" />
        </mxCell>
        <mxCell id="h9SwQM1gShD4SIfXYJDy-2" value="&lt;font&gt;Management&lt;/font&gt;" style="rounded=1;whiteSpace=wrap;html=1;fontFamily=VK Sans Display;strokeColor=none;arcsize=12;fillColor=#F6F7F9;spacing=10;verticalAlign=top;spacingTop=0;spacingLeft=0;spacingRight=0;fontStyle=1;arcSize=12;absoluteArcSize=1;fontColor=#212121;" parent="1" vertex="1">
          <mxGeometry x="610" y="-960" width="180" height="530" as="geometry" />
        </mxCell>
        <mxCell id="h9SwQM1gShD4SIfXYJDy-3" value="" style="rounded=1;whiteSpace=wrap;html=1;strokeColor=#7C8A9A;strokeWidth=2;fontColor=#212121;fillColor=none;dashed=1;arcSize=12;absoluteArcSize=1;fontFamily=VK Sans Display;" parent="1" vertex="1">
          <mxGeometry x="50" y="-556" width="760" height="343" as="geometry" />
        </mxCell>
        <mxCell id="h9SwQM1gShD4SIfXYJDy-4" value="&lt;font&gt;Ceph External&lt;/font&gt;" style="rounded=1;whiteSpace=wrap;html=1;fontFamily=VK Sans Display;strokeColor=none;arcsize=12;fillColor=#F6F7F9;spacing=10;verticalAlign=top;spacingTop=0;spacingLeft=0;spacingRight=0;fontStyle=1;arcSize=12;absoluteArcSize=1;fontColor=#212121;" parent="1" vertex="1">
          <mxGeometry x="910" y="-680" width="340" height="200" as="geometry" />
        </mxCell>
        <mxCell id="h9SwQM1gShD4SIfXYJDy-5" value="&lt;font&gt;Ceph Internal&lt;/font&gt;" style="rounded=1;whiteSpace=wrap;html=1;fontFamily=VK Sans Display;strokeColor=none;arcsize=12;fillColor=#F6F7F9;spacing=10;verticalAlign=top;spacingTop=0;spacingLeft=0;spacingRight=0;fontStyle=1;arcSize=12;absoluteArcSize=1;fontColor=#212121;" parent="1" vertex="1">
          <mxGeometry x="910" y="-818" width="340" height="120" as="geometry" />
        </mxCell>
        <mxCell id="h9SwQM1gShD4SIfXYJDy-6" value="&lt;font&gt;Cloud Tunnel (optional)&lt;/font&gt;" style="rounded=1;whiteSpace=wrap;html=1;fontFamily=VK Sans Display;strokeColor=none;arcsize=12;fillColor=#F6F7F9;spacing=10;verticalAlign=top;spacingTop=0;spacingLeft=0;spacingRight=0;fontStyle=1;arcSize=12;absoluteArcSize=1;fontColor=#212121;" parent="1" vertex="1">
          <mxGeometry x="910" y="-460" width="340" height="120" as="geometry" />
        </mxCell>
        <mxCell id="h9SwQM1gShD4SIfXYJDy-7" value="&lt;font&gt;Public API Transport&lt;/font&gt;" style="rounded=1;whiteSpace=wrap;html=1;fontFamily=VK Sans Display;strokeColor=none;arcsize=12;fillColor=#F6F7F9;spacing=10;verticalAlign=top;spacingTop=0;spacingLeft=0;spacingRight=0;fontStyle=1;arcSize=12;absoluteArcSize=1;fontColor=#212121;" parent="1" vertex="1">
          <mxGeometry x="350" y="-509.5" width="200" height="100" as="geometry" />
        </mxCell>
        <mxCell id="h9SwQM1gShD4SIfXYJDy-8" value="Контроллер" style="rounded=1;whiteSpace=wrap;html=1;fontFamily=VK Sans Display;strokeColor=none;arcsize=12;fillColor=#FFFFFF;spacing=0;spacingTop=12;spacingBottom=12;arcSize=12;absoluteArcSize=1;strokeWidth=1;fontColor=#212121;" parent="1" vertex="1">
          <mxGeometry x="390" y="-467.5" width="120" height="40" as="geometry" />
        </mxCell>
        <mxCell id="h9SwQM1gShD4SIfXYJDy-9" value="&lt;font&gt;Public API Loopbacks&lt;/font&gt;" style="rounded=1;whiteSpace=wrap;html=1;fontFamily=VK Sans Display;strokeColor=none;arcsize=12;fillColor=#F6F7F9;spacing=10;verticalAlign=top;spacingTop=0;spacingLeft=0;spacingRight=0;fontStyle=1;arcSize=12;absoluteArcSize=1;fontColor=#212121;" parent="1" vertex="1">
          <mxGeometry x="70" y="-509.5" width="200" height="100" as="geometry" />
        </mxCell>
        <mxCell id="h9SwQM1gShD4SIfXYJDy-10" value="&lt;font&gt;Контроллер&lt;/font&gt;" style="rounded=1;whiteSpace=wrap;html=1;fontFamily=VK Sans Display;strokeColor=none;arcsize=12;fillColor=#FFFFFF;spacing=0;spacingTop=12;spacingBottom=12;arcSize=12;absoluteArcSize=1;strokeWidth=1;fontColor=#212121;" parent="1" vertex="1">
          <mxGeometry x="110" y="-467.5" width="120" height="40" as="geometry" />
        </mxCell>
        <mxCell id="h9SwQM1gShD4SIfXYJDy-11" value="&lt;font&gt;Private API Loopbacks&lt;/font&gt;" style="rounded=1;whiteSpace=wrap;html=1;fontFamily=VK Sans Display;strokeColor=none;arcsize=12;fillColor=#F6F7F9;spacing=10;verticalAlign=top;spacingTop=0;spacingLeft=0;spacingRight=0;fontStyle=1;arcSize=12;absoluteArcSize=1;fontColor=#212121;" parent="1" vertex="1">
          <mxGeometry x="309" y="-352" width="180" height="120" as="geometry" />
        </mxCell>
        <mxCell id="h9SwQM1gShD4SIfXYJDy-12" value="&lt;font&gt;K8S Internal Pod&lt;/font&gt;" style="rounded=1;whiteSpace=wrap;html=1;fontFamily=VK Sans Display;strokeColor=none;arcsize=12;fillColor=#F6F7F9;spacing=0;spacingTop=12;spacingBottom=12;arcSize=12;absoluteArcSize=1;fontColor=#212121;" parent="1" vertex="1">
          <mxGeometry x="512" y="-353" width="120" height="40" as="geometry" />
        </mxCell>
        <mxCell id="h9SwQM1gShD4SIfXYJDy-13" value="K8S Internal &lt;br&gt;Service" style="rounded=1;whiteSpace=wrap;html=1;fontFamily=VK Sans Display;strokeColor=none;arcsize=12;fillColor=#F6F7F9;spacing=0;spacingTop=12;spacingBottom=12;arcSize=12;absoluteArcSize=1;align=center;fontColor=#212121;" parent="1" vertex="1">
          <mxGeometry x="650" y="-353" width="120" height="40" as="geometry" />
        </mxCell>
        <mxCell id="h9SwQM1gShD4SIfXYJDy-14" value="" style="endArrow=none;html=1;rounded=0;fontSize=14;fontColor=#212121;strokeColor=#7C8A9A;strokeWidth=2;entryX=0.5;entryY=1;entryDx=0;entryDy=0;exitX=0.5;exitY=0;exitDx=0;exitDy=0;fontFamily=VK Sans Display;" parent="1" source="h9SwQM1gShD4SIfXYJDy-12" target="h9SwQM1gShD4SIfXYJDy-54" edge="1">
          <mxGeometry width="50" height="50" relative="1" as="geometry">
            <mxPoint x="430" y="-234" as="sourcePoint" />
            <mxPoint x="710" y="-480.5" as="targetPoint" />
          </mxGeometry>
        </mxCell>
        <mxCell id="h9SwQM1gShD4SIfXYJDy-15" value="" style="endArrow=none;html=1;rounded=0;fontSize=14;fontColor=#212121;strokeColor=#7C8A9A;strokeWidth=2;exitX=0.75;exitY=0;exitDx=0;exitDy=0;entryX=0.5;entryY=1;entryDx=0;entryDy=0;fontFamily=VK Sans Display;" parent="1" source="h9SwQM1gShD4SIfXYJDy-11" target="h9SwQM1gShD4SIfXYJDy-54" edge="1">
          <mxGeometry width="50" height="50" relative="1" as="geometry">
            <mxPoint x="317" y="-244" as="sourcePoint" />
            <mxPoint x="710" y="-480.5" as="targetPoint" />
          </mxGeometry>
        </mxCell>
        <mxCell id="h9SwQM1gShD4SIfXYJDy-16" value="" style="endArrow=none;html=1;rounded=0;fontSize=14;fontColor=#212121;strokeColor=#7C8A9A;strokeWidth=2;fontFamily=VK Sans Display;" parent="1" source="h9SwQM1gShD4SIfXYJDy-9" target="h9SwQM1gShD4SIfXYJDy-7" edge="1">
          <mxGeometry width="50" height="50" relative="1" as="geometry">
            <mxPoint x="270" y="-428.8299999999999" as="sourcePoint" />
            <mxPoint x="307" y="-428" as="targetPoint" />
          </mxGeometry>
        </mxCell>
        <mxCell id="h9SwQM1gShD4SIfXYJDy-17" value="&lt;font&gt;Cloud External&lt;/font&gt;" style="rounded=1;whiteSpace=wrap;html=1;fontFamily=VK Sans Display;strokeColor=none;arcsize=12;fillColor=#F6F7F9;spacing=10;verticalAlign=top;spacingTop=0;spacingLeft=0;spacingRight=0;fontStyle=1;arcSize=12;absoluteArcSize=1;fontColor=#212121;" parent="1" vertex="1">
          <mxGeometry x="70" y="-810" width="330" height="120" as="geometry" />
        </mxCell>
        <mxCell id="h9SwQM1gShD4SIfXYJDy-18" value="Роутер 1" style="text;html=1;strokeColor=none;fillColor=none;align=center;verticalAlign=middle;whiteSpace=wrap;rounded=0;fontFamily=VK Sans Display;fontColor=#212121;" parent="1" vertex="1">
          <mxGeometry x="419" y="-1102" width="60" height="30" as="geometry" />
        </mxCell>
        <mxCell id="h9SwQM1gShD4SIfXYJDy-19" value="Роутер 2" style="text;html=1;strokeColor=none;fillColor=none;align=center;verticalAlign=middle;whiteSpace=wrap;rounded=0;fontFamily=VK Sans Display;fontColor=#212121;" parent="1" vertex="1">
          <mxGeometry x="537.5" y="-1102" width="60" height="30" as="geometry" />
        </mxCell>
        <mxCell id="h9SwQM1gShD4SIfXYJDy-20" value="" style="endArrow=none;html=1;rounded=0;fontSize=14;fontColor=#212121;strokeColor=#7C8A9A;strokeWidth=2;entryX=0.5;entryY=1;entryDx=0;entryDy=0;exitX=0.5;exitY=0;exitDx=0;exitDy=0;fontFamily=VK Sans Display;" parent="1" source="h9SwQM1gShD4SIfXYJDy-17" target="h9SwQM1gShD4SIfXYJDy-93" edge="1">
          <mxGeometry width="50" height="50" relative="1" as="geometry">
            <mxPoint x="110" y="-766" as="sourcePoint" />
            <mxPoint x="450" y="-985" as="targetPoint" />
          </mxGeometry>
        </mxCell>
        <mxCell id="h9SwQM1gShD4SIfXYJDy-21" value="" style="endArrow=none;html=1;rounded=0;fontSize=14;fontColor=#212121;strokeColor=#7C8A9A;strokeWidth=2;entryX=0.5;entryY=1;entryDx=0;entryDy=0;exitX=0.5;exitY=0;exitDx=0;exitDy=0;fontFamily=VK Sans Display;" parent="1" source="h9SwQM1gShD4SIfXYJDy-17" target="h9SwQM1gShD4SIfXYJDy-94" edge="1">
          <mxGeometry width="50" height="50" relative="1" as="geometry">
            <mxPoint x="338" y="-801" as="sourcePoint" />
            <mxPoint x="567.5" y="-985" as="targetPoint" />
          </mxGeometry>
        </mxCell>
        <mxCell id="h9SwQM1gShD4SIfXYJDy-22" value="" style="endArrow=none;html=1;rounded=0;fontSize=14;fontColor=#212121;strokeColor=#7C8A9A;strokeWidth=2;entryX=0.5;entryY=1;entryDx=0;entryDy=0;exitX=0.5;exitY=0;exitDx=0;exitDy=0;fontFamily=VK Sans Display;" parent="1" source="h9SwQM1gShD4SIfXYJDy-2" target="h9SwQM1gShD4SIfXYJDy-93" edge="1">
          <mxGeometry width="50" height="50" relative="1" as="geometry">
            <mxPoint x="338" y="-801" as="sourcePoint" />
            <mxPoint x="450" y="-985" as="targetPoint" />
          </mxGeometry>
        </mxCell>
        <mxCell id="h9SwQM1gShD4SIfXYJDy-23" value="" style="endArrow=none;html=1;rounded=0;fontSize=14;fontColor=#212121;strokeColor=#7C8A9A;strokeWidth=2;entryX=0.5;entryY=1;entryDx=0;entryDy=0;exitX=0.5;exitY=0;exitDx=0;exitDy=0;fontFamily=VK Sans Display;" parent="1" source="h9SwQM1gShD4SIfXYJDy-2" target="h9SwQM1gShD4SIfXYJDy-94" edge="1">
          <mxGeometry width="50" height="50" relative="1" as="geometry">
            <mxPoint x="700" y="-860" as="sourcePoint" />
            <mxPoint x="567.5" y="-985" as="targetPoint" />
          </mxGeometry>
        </mxCell>
        <mxCell id="h9SwQM1gShD4SIfXYJDy-24" value="" style="endArrow=none;html=1;rounded=0;fontSize=14;fontColor=#212121;strokeColor=#7C8A9A;strokeWidth=2;entryX=0.5;entryY=1;entryDx=0;entryDy=0;exitX=0.5;exitY=0;exitDx=0;exitDy=0;fontFamily=VK Sans Display;" parent="1" source="h9SwQM1gShD4SIfXYJDy-7" target="h9SwQM1gShD4SIfXYJDy-93" edge="1">
          <mxGeometry width="50" height="50" relative="1" as="geometry">
            <mxPoint x="338" y="-801" as="sourcePoint" />
            <mxPoint x="450" y="-985" as="targetPoint" />
          </mxGeometry>
        </mxCell>
        <mxCell id="h9SwQM1gShD4SIfXYJDy-25" value="" style="endArrow=none;html=1;rounded=0;fontSize=14;fontColor=#212121;strokeColor=#7C8A9A;strokeWidth=2;exitX=0.5;exitY=0;exitDx=0;exitDy=0;fontFamily=VK Sans Display;entryX=0.5;entryY=1;entryDx=0;entryDy=0;" parent="1" source="h9SwQM1gShD4SIfXYJDy-7" target="h9SwQM1gShD4SIfXYJDy-94" edge="1">
          <mxGeometry width="50" height="50" relative="1" as="geometry">
            <mxPoint x="428.5" y="-495" as="sourcePoint" />
            <mxPoint x="568" y="-1020" as="targetPoint" />
          </mxGeometry>
        </mxCell>
        <mxCell id="h9SwQM1gShD4SIfXYJDy-26" value="" style="endArrow=none;html=1;rounded=0;fontSize=14;fontColor=#212121;strokeColor=#7C8A9A;strokeWidth=2;entryX=0.5;entryY=1;entryDx=0;entryDy=0;exitX=0.5;exitY=0;exitDx=0;exitDy=0;fontFamily=VK Sans Display;" parent="1" source="h9SwQM1gShD4SIfXYJDy-13" target="h9SwQM1gShD4SIfXYJDy-54" edge="1">
          <mxGeometry width="50" height="50" relative="1" as="geometry">
            <mxPoint x="710" y="-245" as="sourcePoint" />
            <mxPoint x="710" y="-480.5" as="targetPoint" />
          </mxGeometry>
        </mxCell>
        <mxCell id="h9SwQM1gShD4SIfXYJDy-27" value="" style="group;fontFamily=VK Sans Display;fontColor=#212121;" parent="1" vertex="1" connectable="0">
          <mxGeometry x="90" y="-768" width="140" height="60" as="geometry" />
        </mxCell>
        <mxCell id="h9SwQM1gShD4SIfXYJDy-28" value="" style="rounded=1;whiteSpace=wrap;html=1;fontFamily=VK Sans Display;strokeColor=#7C8A9A;arcsize=12;fillColor=#FFF;spacing=0;spacingTop=12;spacingBottom=12;arcSize=12;absoluteArcSize=1;strokeWidth=1;fontColor=#212121;" parent="h9SwQM1gShD4SIfXYJDy-27" vertex="1">
          <mxGeometry width="120" height="40" as="geometry" />
        </mxCell>
        <mxCell id="h9SwQM1gShD4SIfXYJDy-29" value="" style="rounded=1;whiteSpace=wrap;html=1;fontFamily=VK Sans Display;strokeColor=#7C8A9A;arcsize=12;fillColor=#FFF;spacing=0;spacingTop=12;spacingBottom=12;arcSize=12;absoluteArcSize=1;strokeWidth=1;fontColor=#212121;" parent="h9SwQM1gShD4SIfXYJDy-27" vertex="1">
          <mxGeometry x="10" y="10" width="120" height="40" as="geometry" />
        </mxCell>
        <mxCell id="h9SwQM1gShD4SIfXYJDy-30" value="Вычислительные узлы" style="rounded=1;whiteSpace=wrap;html=1;fontFamily=VK Sans Display;strokeColor=#7C8A9A;arcsize=12;fillColor=#FFF;spacing=0;spacingTop=12;spacingBottom=12;arcSize=12;absoluteArcSize=1;strokeWidth=1;fontColor=#212121;" parent="h9SwQM1gShD4SIfXYJDy-27" vertex="1">
          <mxGeometry x="20" y="20" width="120" height="40" as="geometry" />
        </mxCell>
        <mxCell id="h9SwQM1gShD4SIfXYJDy-31" value="" style="group;fontFamily=VK Sans Display;fontColor=#212121;" parent="1" vertex="1" connectable="0">
          <mxGeometry x="240" y="-768" width="140" height="60" as="geometry" />
        </mxCell>
        <mxCell id="h9SwQM1gShD4SIfXYJDy-32" value="" style="rounded=1;whiteSpace=wrap;html=1;fontFamily=VK Sans Display;strokeColor=#7C8A9A;arcsize=12;fillColor=#FFF;spacing=0;spacingTop=12;spacingBottom=12;arcSize=12;absoluteArcSize=1;strokeWidth=1;fontColor=#212121;" parent="h9SwQM1gShD4SIfXYJDy-31" vertex="1">
          <mxGeometry width="120" height="40" as="geometry" />
        </mxCell>
        <mxCell id="h9SwQM1gShD4SIfXYJDy-33" value="" style="rounded=1;whiteSpace=wrap;html=1;fontFamily=VK Sans Display;strokeColor=#7C8A9A;arcsize=12;fillColor=#FFF;spacing=0;spacingTop=12;spacingBottom=12;arcSize=12;absoluteArcSize=1;strokeWidth=1;fontColor=#212121;" parent="h9SwQM1gShD4SIfXYJDy-31" vertex="1">
          <mxGeometry x="10" y="10" width="120" height="40" as="geometry" />
        </mxCell>
        <mxCell id="h9SwQM1gShD4SIfXYJDy-34" value="Контроллеры" style="rounded=1;whiteSpace=wrap;html=1;fontFamily=VK Sans Display;strokeColor=#7C8A9A;arcsize=12;fillColor=#FFF;spacing=0;spacingTop=12;spacingBottom=12;arcSize=12;absoluteArcSize=1;strokeWidth=1;fontColor=#212121;" parent="h9SwQM1gShD4SIfXYJDy-31" vertex="1">
          <mxGeometry x="20" y="20" width="120" height="40" as="geometry" />
        </mxCell>
        <mxCell id="h9SwQM1gShD4SIfXYJDy-35" value="" style="group;fontFamily=VK Sans Display;fontColor=#212121;" parent="1" vertex="1" connectable="0">
          <mxGeometry x="930" y="-778" width="140" height="60" as="geometry" />
        </mxCell>
        <mxCell id="h9SwQM1gShD4SIfXYJDy-36" value="" style="rounded=1;whiteSpace=wrap;html=1;fontFamily=VK Sans Display;strokeColor=#7C8A9A;arcsize=12;fillColor=#FFF;spacing=0;spacingTop=12;spacingBottom=12;arcSize=12;absoluteArcSize=1;strokeWidth=1;fontColor=#212121;" parent="h9SwQM1gShD4SIfXYJDy-35" vertex="1">
          <mxGeometry width="120" height="40" as="geometry" />
        </mxCell>
        <mxCell id="h9SwQM1gShD4SIfXYJDy-37" value="" style="rounded=1;whiteSpace=wrap;html=1;fontFamily=VK Sans Display;strokeColor=#7C8A9A;arcsize=12;fillColor=#FFF;spacing=0;spacingTop=12;spacingBottom=12;arcSize=12;absoluteArcSize=1;strokeWidth=1;fontColor=#212121;" parent="h9SwQM1gShD4SIfXYJDy-35" vertex="1">
          <mxGeometry x="10" y="10" width="120" height="40" as="geometry" />
        </mxCell>
        <mxCell id="h9SwQM1gShD4SIfXYJDy-38" value="Ceph" style="rounded=1;whiteSpace=wrap;html=1;fontFamily=VK Sans Display;strokeColor=#7C8A9A;arcsize=12;fillColor=#FFF;spacing=0;spacingTop=12;spacingBottom=12;arcSize=12;absoluteArcSize=1;strokeWidth=1;fontColor=#212121;" parent="h9SwQM1gShD4SIfXYJDy-35" vertex="1">
          <mxGeometry x="20" y="20" width="120" height="40" as="geometry" />
        </mxCell>
        <mxCell id="h9SwQM1gShD4SIfXYJDy-39" value="" style="group;fontFamily=VK Sans Display;fontColor=#212121;" parent="1" vertex="1" connectable="0">
          <mxGeometry x="630" y="-770" width="140" height="60" as="geometry" />
        </mxCell>
        <mxCell id="h9SwQM1gShD4SIfXYJDy-40" value="" style="rounded=1;whiteSpace=wrap;html=1;fontFamily=VK Sans Display;strokeColor=#7C8A9A;arcsize=12;fillColor=#FFF;spacing=0;spacingTop=12;spacingBottom=12;arcSize=12;absoluteArcSize=1;strokeWidth=1;fontColor=#212121;" parent="h9SwQM1gShD4SIfXYJDy-39" vertex="1">
          <mxGeometry width="120" height="40" as="geometry" />
        </mxCell>
        <mxCell id="h9SwQM1gShD4SIfXYJDy-41" value="" style="rounded=1;whiteSpace=wrap;html=1;fontFamily=VK Sans Display;strokeColor=#7C8A9A;arcsize=12;fillColor=#FFF;spacing=0;spacingTop=12;spacingBottom=12;arcSize=12;absoluteArcSize=1;strokeWidth=1;fontColor=#212121;" parent="h9SwQM1gShD4SIfXYJDy-39" vertex="1">
          <mxGeometry x="10" y="10" width="120" height="40" as="geometry" />
        </mxCell>
        <mxCell id="h9SwQM1gShD4SIfXYJDy-42" value="Вычислительные узлы" style="rounded=1;whiteSpace=wrap;html=1;fontFamily=VK Sans Display;strokeColor=#7C8A9A;arcsize=12;fillColor=#FFF;spacing=0;spacingTop=12;spacingBottom=12;arcSize=12;absoluteArcSize=1;strokeWidth=1;fontColor=#212121;" parent="h9SwQM1gShD4SIfXYJDy-39" vertex="1">
          <mxGeometry x="20" y="20" width="120" height="40" as="geometry" />
        </mxCell>
        <mxCell id="h9SwQM1gShD4SIfXYJDy-43" value="" style="group;fontFamily=VK Sans Display;fontColor=#212121;" parent="1" vertex="1" connectable="0">
          <mxGeometry x="630" y="-700" width="140" height="60" as="geometry" />
        </mxCell>
        <mxCell id="h9SwQM1gShD4SIfXYJDy-44" value="" style="rounded=1;whiteSpace=wrap;html=1;fontFamily=VK Sans Display;strokeColor=#7C8A9A;arcsize=12;fillColor=#FFF;spacing=0;spacingTop=12;spacingBottom=12;arcSize=12;absoluteArcSize=1;strokeWidth=1;fontColor=#212121;" parent="h9SwQM1gShD4SIfXYJDy-43" vertex="1">
          <mxGeometry width="120" height="40" as="geometry" />
        </mxCell>
        <mxCell id="h9SwQM1gShD4SIfXYJDy-45" value="" style="rounded=1;whiteSpace=wrap;html=1;fontFamily=VK Sans Display;strokeColor=#7C8A9A;arcsize=12;fillColor=#FFF;spacing=0;spacingTop=12;spacingBottom=12;arcSize=12;absoluteArcSize=1;strokeWidth=1;fontColor=#212121;" parent="h9SwQM1gShD4SIfXYJDy-43" vertex="1">
          <mxGeometry x="10" y="10" width="120" height="40" as="geometry" />
        </mxCell>
        <mxCell id="h9SwQM1gShD4SIfXYJDy-46" value="Узлы прикладных сервисов" style="rounded=1;whiteSpace=wrap;html=1;fontFamily=VK Sans Display;strokeColor=#7C8A9A;arcsize=12;fillColor=#FFF;spacing=0;spacingTop=12;spacingBottom=12;arcSize=12;absoluteArcSize=1;strokeWidth=1;fontColor=#212121;" parent="h9SwQM1gShD4SIfXYJDy-43" vertex="1">
          <mxGeometry x="20" y="20" width="120" height="40" as="geometry" />
        </mxCell>
        <mxCell id="h9SwQM1gShD4SIfXYJDy-47" value="" style="group;fontFamily=VK Sans Display;fontColor=#212121;" parent="1" vertex="1" connectable="0">
          <mxGeometry x="630" y="-630" width="140" height="60" as="geometry" />
        </mxCell>
        <mxCell id="h9SwQM1gShD4SIfXYJDy-48" value="" style="rounded=1;whiteSpace=wrap;html=1;fontFamily=VK Sans Display;strokeColor=#7C8A9A;arcsize=12;fillColor=#FFF;spacing=0;spacingTop=12;spacingBottom=12;arcSize=12;absoluteArcSize=1;strokeWidth=1;fontColor=#212121;" parent="h9SwQM1gShD4SIfXYJDy-47" vertex="1">
          <mxGeometry width="120" height="40" as="geometry" />
        </mxCell>
        <mxCell id="h9SwQM1gShD4SIfXYJDy-49" value="" style="rounded=1;whiteSpace=wrap;html=1;fontFamily=VK Sans Display;strokeColor=#7C8A9A;arcsize=12;fillColor=#FFF;spacing=0;spacingTop=12;spacingBottom=12;arcSize=12;absoluteArcSize=1;strokeWidth=1;fontColor=#212121;" parent="h9SwQM1gShD4SIfXYJDy-47" vertex="1">
          <mxGeometry x="10" y="10" width="120" height="40" as="geometry" />
        </mxCell>
        <mxCell id="h9SwQM1gShD4SIfXYJDy-50" value="Мониторинг и логирование" style="rounded=1;whiteSpace=wrap;html=1;fontFamily=VK Sans Display;strokeColor=#7C8A9A;arcsize=12;fillColor=#FFF;spacing=0;spacingTop=12;spacingBottom=12;arcSize=12;absoluteArcSize=1;strokeWidth=1;fontColor=#212121;" parent="h9SwQM1gShD4SIfXYJDy-47" vertex="1">
          <mxGeometry x="20" y="20" width="120" height="40" as="geometry" />
        </mxCell>
        <mxCell id="h9SwQM1gShD4SIfXYJDy-51" value="" style="group;fontFamily=VK Sans Display;fontColor=#212121;" parent="1" vertex="1" connectable="0">
          <mxGeometry x="630" y="-534" width="140" height="60" as="geometry" />
        </mxCell>
        <mxCell id="h9SwQM1gShD4SIfXYJDy-52" value="" style="rounded=1;whiteSpace=wrap;html=1;fontFamily=VK Sans Display;strokeColor=#7C8A9A;arcsize=12;fillColor=#FFF;spacing=0;spacingTop=12;spacingBottom=12;arcSize=12;absoluteArcSize=1;strokeWidth=1;fontColor=#212121;" parent="h9SwQM1gShD4SIfXYJDy-51" vertex="1">
          <mxGeometry width="120" height="40" as="geometry" />
        </mxCell>
        <mxCell id="h9SwQM1gShD4SIfXYJDy-53" value="" style="rounded=1;whiteSpace=wrap;html=1;fontFamily=VK Sans Display;strokeColor=#7C8A9A;arcsize=12;fillColor=#FFF;spacing=0;spacingTop=12;spacingBottom=12;arcSize=12;absoluteArcSize=1;strokeWidth=1;fontColor=#212121;" parent="h9SwQM1gShD4SIfXYJDy-51" vertex="1">
          <mxGeometry x="10" y="10" width="120" height="40" as="geometry" />
        </mxCell>
        <mxCell id="h9SwQM1gShD4SIfXYJDy-54" value="Контроллеры" style="rounded=1;whiteSpace=wrap;html=1;fontFamily=VK Sans Display;strokeColor=#7C8A9A;arcsize=12;fillColor=#FFF;spacing=0;spacingTop=12;spacingBottom=12;arcSize=12;absoluteArcSize=1;strokeWidth=1;fontColor=#212121;" parent="h9SwQM1gShD4SIfXYJDy-51" vertex="1">
          <mxGeometry x="20" y="20" width="120" height="40" as="geometry" />
        </mxCell>
        <mxCell id="h9SwQM1gShD4SIfXYJDy-55" value="" style="group;fontFamily=VK Sans Display;fontColor=#212121;" parent="1" vertex="1" connectable="0">
          <mxGeometry x="329" y="-310" width="140" height="60" as="geometry" />
        </mxCell>
        <mxCell id="h9SwQM1gShD4SIfXYJDy-56" value="" style="rounded=1;whiteSpace=wrap;html=1;fontFamily=VK Sans Display;strokeColor=#7C8A9A;arcsize=12;fillColor=#FFF;spacing=0;spacingTop=12;spacingBottom=12;arcSize=12;absoluteArcSize=1;strokeWidth=1;fontColor=#212121;" parent="h9SwQM1gShD4SIfXYJDy-55" vertex="1">
          <mxGeometry width="120" height="40" as="geometry" />
        </mxCell>
        <mxCell id="h9SwQM1gShD4SIfXYJDy-57" value="" style="rounded=1;whiteSpace=wrap;html=1;fontFamily=VK Sans Display;strokeColor=#7C8A9A;arcsize=12;fillColor=#FFF;spacing=0;spacingTop=12;spacingBottom=12;arcSize=12;absoluteArcSize=1;strokeWidth=1;fontColor=#212121;" parent="h9SwQM1gShD4SIfXYJDy-55" vertex="1">
          <mxGeometry x="10" y="10" width="120" height="40" as="geometry" />
        </mxCell>
        <mxCell id="h9SwQM1gShD4SIfXYJDy-58" value="Контроллеры" style="rounded=1;whiteSpace=wrap;html=1;fontFamily=VK Sans Display;strokeColor=#7C8A9A;arcsize=12;fillColor=#FFF;spacing=0;spacingTop=12;spacingBottom=12;arcSize=12;absoluteArcSize=1;strokeWidth=1;fontColor=#212121;" parent="h9SwQM1gShD4SIfXYJDy-55" vertex="1">
          <mxGeometry x="20" y="20" width="120" height="40" as="geometry" />
        </mxCell>
        <mxCell id="h9SwQM1gShD4SIfXYJDy-59" value="" style="group;fontFamily=VK Sans Display;fontColor=#212121;" parent="1" vertex="1" connectable="0">
          <mxGeometry x="1090" y="-778" width="140" height="60" as="geometry" />
        </mxCell>
        <mxCell id="h9SwQM1gShD4SIfXYJDy-60" value="" style="rounded=1;whiteSpace=wrap;html=1;fontFamily=VK Sans Display;strokeColor=#7C8A9A;arcsize=12;fillColor=#FFF;spacing=0;spacingTop=12;spacingBottom=12;arcSize=12;absoluteArcSize=1;strokeWidth=1;fontColor=#212121;" parent="h9SwQM1gShD4SIfXYJDy-59" vertex="1">
          <mxGeometry width="120" height="40" as="geometry" />
        </mxCell>
        <mxCell id="h9SwQM1gShD4SIfXYJDy-61" value="" style="rounded=1;whiteSpace=wrap;html=1;fontFamily=VK Sans Display;strokeColor=#7C8A9A;arcsize=12;fillColor=#FFF;spacing=0;spacingTop=12;spacingBottom=12;arcSize=12;absoluteArcSize=1;strokeWidth=1;fontColor=#212121;" parent="h9SwQM1gShD4SIfXYJDy-59" vertex="1">
          <mxGeometry x="10" y="10" width="120" height="40" as="geometry" />
        </mxCell>
        <mxCell id="h9SwQM1gShD4SIfXYJDy-62" value="Ceph" style="rounded=1;whiteSpace=wrap;html=1;fontFamily=VK Sans Display;strokeColor=#7C8A9A;arcsize=12;fillColor=#FFF;spacing=0;spacingTop=12;spacingBottom=12;arcSize=12;absoluteArcSize=1;strokeWidth=1;fontColor=#212121;" parent="h9SwQM1gShD4SIfXYJDy-59" vertex="1">
          <mxGeometry x="20" y="20" width="120" height="40" as="geometry" />
        </mxCell>
        <mxCell id="h9SwQM1gShD4SIfXYJDy-63" value="" style="group;fontFamily=VK Sans Display;fontColor=#212121;" parent="1" vertex="1" connectable="0">
          <mxGeometry x="930" y="-639" width="140" height="60" as="geometry" />
        </mxCell>
        <mxCell id="h9SwQM1gShD4SIfXYJDy-64" value="" style="rounded=1;whiteSpace=wrap;html=1;fontFamily=VK Sans Display;strokeColor=#7C8A9A;arcsize=12;fillColor=#FFF;spacing=0;spacingTop=12;spacingBottom=12;arcSize=12;absoluteArcSize=1;strokeWidth=1;fontColor=#212121;" parent="h9SwQM1gShD4SIfXYJDy-63" vertex="1">
          <mxGeometry width="120" height="40" as="geometry" />
        </mxCell>
        <mxCell id="h9SwQM1gShD4SIfXYJDy-65" value="" style="rounded=1;whiteSpace=wrap;html=1;fontFamily=VK Sans Display;strokeColor=#7C8A9A;arcsize=12;fillColor=#FFF;spacing=0;spacingTop=12;spacingBottom=12;arcSize=12;absoluteArcSize=1;strokeWidth=1;fontColor=#212121;" parent="h9SwQM1gShD4SIfXYJDy-63" vertex="1">
          <mxGeometry x="10" y="10" width="120" height="40" as="geometry" />
        </mxCell>
        <mxCell id="h9SwQM1gShD4SIfXYJDy-66" value="Контроллеры" style="rounded=1;whiteSpace=wrap;html=1;fontFamily=VK Sans Display;strokeColor=#7C8A9A;arcsize=12;fillColor=#FFF;spacing=0;spacingTop=12;spacingBottom=12;arcSize=12;absoluteArcSize=1;strokeWidth=1;fontColor=#212121;" parent="h9SwQM1gShD4SIfXYJDy-63" vertex="1">
          <mxGeometry x="20" y="20" width="120" height="40" as="geometry" />
        </mxCell>
        <mxCell id="h9SwQM1gShD4SIfXYJDy-67" value="" style="group;fontFamily=VK Sans Display;fontColor=#212121;" parent="1" vertex="1" connectable="0">
          <mxGeometry x="1090" y="-639" width="140" height="60" as="geometry" />
        </mxCell>
        <mxCell id="h9SwQM1gShD4SIfXYJDy-68" value="" style="rounded=1;whiteSpace=wrap;html=1;fontFamily=VK Sans Display;strokeColor=#7C8A9A;arcsize=12;fillColor=#FFF;spacing=0;spacingTop=12;spacingBottom=12;arcSize=12;absoluteArcSize=1;strokeWidth=1;fontColor=#212121;" parent="h9SwQM1gShD4SIfXYJDy-67" vertex="1">
          <mxGeometry width="120" height="40" as="geometry" />
        </mxCell>
        <mxCell id="h9SwQM1gShD4SIfXYJDy-69" value="" style="rounded=1;whiteSpace=wrap;html=1;fontFamily=VK Sans Display;strokeColor=#7C8A9A;arcsize=12;fillColor=#FFF;spacing=0;spacingTop=12;spacingBottom=12;arcSize=12;absoluteArcSize=1;strokeWidth=1;fontColor=#212121;" parent="h9SwQM1gShD4SIfXYJDy-67" vertex="1">
          <mxGeometry x="10" y="10" width="120" height="40" as="geometry" />
        </mxCell>
        <mxCell id="h9SwQM1gShD4SIfXYJDy-70" value="Вычислительные узлы" style="rounded=1;whiteSpace=wrap;html=1;fontFamily=VK Sans Display;strokeColor=#7C8A9A;arcsize=12;fillColor=#FFF;spacing=0;spacingTop=12;spacingBottom=12;arcSize=12;absoluteArcSize=1;strokeWidth=1;fontColor=#212121;" parent="h9SwQM1gShD4SIfXYJDy-67" vertex="1">
          <mxGeometry x="20" y="20" width="120" height="40" as="geometry" />
        </mxCell>
        <mxCell id="h9SwQM1gShD4SIfXYJDy-71" value="" style="group;fontFamily=VK Sans Display;fontColor=#212121;" parent="1" vertex="1" connectable="0">
          <mxGeometry x="930" y="-560" width="140" height="60" as="geometry" />
        </mxCell>
        <mxCell id="h9SwQM1gShD4SIfXYJDy-72" value="" style="rounded=1;whiteSpace=wrap;html=1;fontFamily=VK Sans Display;strokeColor=#7C8A9A;arcsize=12;fillColor=#FFF;spacing=0;spacingTop=12;spacingBottom=12;arcSize=12;absoluteArcSize=1;strokeWidth=1;fontColor=#212121;" parent="h9SwQM1gShD4SIfXYJDy-71" vertex="1">
          <mxGeometry width="120" height="40" as="geometry" />
        </mxCell>
        <mxCell id="h9SwQM1gShD4SIfXYJDy-73" value="" style="rounded=1;whiteSpace=wrap;html=1;fontFamily=VK Sans Display;strokeColor=#7C8A9A;arcsize=12;fillColor=#FFF;spacing=0;spacingTop=12;spacingBottom=12;arcSize=12;absoluteArcSize=1;strokeWidth=1;fontColor=#212121;" parent="h9SwQM1gShD4SIfXYJDy-71" vertex="1">
          <mxGeometry x="10" y="10" width="120" height="40" as="geometry" />
        </mxCell>
        <mxCell id="h9SwQM1gShD4SIfXYJDy-74" value="Ceph" style="rounded=1;whiteSpace=wrap;html=1;fontFamily=VK Sans Display;strokeColor=#7C8A9A;arcsize=12;fillColor=#FFF;spacing=0;spacingTop=12;spacingBottom=12;arcSize=12;absoluteArcSize=1;strokeWidth=1;fontColor=#212121;" parent="h9SwQM1gShD4SIfXYJDy-71" vertex="1">
          <mxGeometry x="20" y="20" width="120" height="40" as="geometry" />
        </mxCell>
        <mxCell id="h9SwQM1gShD4SIfXYJDy-75" value="" style="group;fontFamily=VK Sans Display;fontColor=#212121;" parent="1" vertex="1" connectable="0">
          <mxGeometry x="1090" y="-560" width="140" height="60" as="geometry" />
        </mxCell>
        <mxCell id="h9SwQM1gShD4SIfXYJDy-76" value="" style="rounded=1;whiteSpace=wrap;html=1;fontFamily=VK Sans Display;strokeColor=#7C8A9A;arcsize=12;fillColor=#FFF;spacing=0;spacingTop=12;spacingBottom=12;arcSize=12;absoluteArcSize=1;strokeWidth=1;fontColor=#212121;" parent="h9SwQM1gShD4SIfXYJDy-75" vertex="1">
          <mxGeometry width="120" height="40" as="geometry" />
        </mxCell>
        <mxCell id="h9SwQM1gShD4SIfXYJDy-77" value="" style="rounded=1;whiteSpace=wrap;html=1;fontFamily=VK Sans Display;strokeColor=#7C8A9A;arcsize=12;fillColor=#FFF;spacing=0;spacingTop=12;spacingBottom=12;arcSize=12;absoluteArcSize=1;strokeWidth=1;fontColor=#212121;" parent="h9SwQM1gShD4SIfXYJDy-75" vertex="1">
          <mxGeometry x="10" y="10" width="120" height="40" as="geometry" />
        </mxCell>
        <mxCell id="h9SwQM1gShD4SIfXYJDy-78" value="High-IOPS" style="rounded=1;whiteSpace=wrap;html=1;fontFamily=VK Sans Display;strokeColor=#7C8A9A;arcsize=12;fillColor=#FFF;spacing=0;spacingTop=12;spacingBottom=12;arcSize=12;absoluteArcSize=1;strokeWidth=1;fontColor=#212121;" parent="h9SwQM1gShD4SIfXYJDy-75" vertex="1">
          <mxGeometry x="20" y="20" width="120" height="40" as="geometry" />
        </mxCell>
        <mxCell id="h9SwQM1gShD4SIfXYJDy-79" value="" style="group;fontFamily=VK Sans Display;fontColor=#212121;" parent="1" vertex="1" connectable="0">
          <mxGeometry x="930" y="-420" width="140" height="60" as="geometry" />
        </mxCell>
        <mxCell id="h9SwQM1gShD4SIfXYJDy-80" value="" style="rounded=1;whiteSpace=wrap;html=1;fontFamily=VK Sans Display;strokeColor=#7C8A9A;arcsize=12;fillColor=#FFF;spacing=0;spacingTop=12;spacingBottom=12;arcSize=12;absoluteArcSize=1;strokeWidth=1;fontColor=#212121;" parent="h9SwQM1gShD4SIfXYJDy-79" vertex="1">
          <mxGeometry width="120" height="40" as="geometry" />
        </mxCell>
        <mxCell id="h9SwQM1gShD4SIfXYJDy-81" value="" style="rounded=1;whiteSpace=wrap;html=1;fontFamily=VK Sans Display;strokeColor=#7C8A9A;arcsize=12;fillColor=#FFF;spacing=0;spacingTop=12;spacingBottom=12;arcSize=12;absoluteArcSize=1;strokeWidth=1;fontColor=#212121;" parent="h9SwQM1gShD4SIfXYJDy-79" vertex="1">
          <mxGeometry x="10" y="10" width="120" height="40" as="geometry" />
        </mxCell>
        <mxCell id="h9SwQM1gShD4SIfXYJDy-82" value="Контроллеры" style="rounded=1;whiteSpace=wrap;html=1;fontFamily=VK Sans Display;strokeColor=#7C8A9A;arcsize=12;fillColor=#FFF;spacing=0;spacingTop=12;spacingBottom=12;arcSize=12;absoluteArcSize=1;strokeWidth=1;fontColor=#212121;" parent="h9SwQM1gShD4SIfXYJDy-79" vertex="1">
          <mxGeometry x="20" y="20" width="120" height="40" as="geometry" />
        </mxCell>
        <mxCell id="h9SwQM1gShD4SIfXYJDy-83" value="" style="group;fontFamily=VK Sans Display;fontColor=#212121;" parent="1" vertex="1" connectable="0">
          <mxGeometry x="1090" y="-420" width="140" height="60" as="geometry" />
        </mxCell>
        <mxCell id="h9SwQM1gShD4SIfXYJDy-84" value="" style="rounded=1;whiteSpace=wrap;html=1;fontFamily=VK Sans Display;strokeColor=#7C8A9A;arcsize=12;fillColor=#FFF;spacing=0;spacingTop=12;spacingBottom=12;arcSize=12;absoluteArcSize=1;strokeWidth=1;fontColor=#212121;" parent="h9SwQM1gShD4SIfXYJDy-83" vertex="1">
          <mxGeometry width="120" height="40" as="geometry" />
        </mxCell>
        <mxCell id="h9SwQM1gShD4SIfXYJDy-85" value="" style="rounded=1;whiteSpace=wrap;html=1;fontFamily=VK Sans Display;strokeColor=#7C8A9A;arcsize=12;fillColor=#FFF;spacing=0;spacingTop=12;spacingBottom=12;arcSize=12;absoluteArcSize=1;strokeWidth=1;fontColor=#212121;" parent="h9SwQM1gShD4SIfXYJDy-83" vertex="1">
          <mxGeometry x="10" y="10" width="120" height="40" as="geometry" />
        </mxCell>
        <mxCell id="h9SwQM1gShD4SIfXYJDy-86" value="Вычислительные узлы" style="rounded=1;whiteSpace=wrap;html=1;fontFamily=VK Sans Display;strokeColor=#7C8A9A;arcsize=12;fillColor=#FFF;spacing=0;spacingTop=12;spacingBottom=12;arcSize=12;absoluteArcSize=1;strokeWidth=1;fontColor=#212121;" parent="h9SwQM1gShD4SIfXYJDy-83" vertex="1">
          <mxGeometry x="20" y="20" width="120" height="40" as="geometry" />
        </mxCell>
        <mxCell id="h9SwQM1gShD4SIfXYJDy-87" value="" style="group;fontFamily=VK Sans Display;fontColor=#212121;" parent="1" vertex="1" connectable="0">
          <mxGeometry x="630" y="-840" width="140" height="60" as="geometry" />
        </mxCell>
        <mxCell id="h9SwQM1gShD4SIfXYJDy-88" value="" style="rounded=1;whiteSpace=wrap;html=1;fontFamily=VK Sans Display;strokeColor=#7C8A9A;arcsize=12;fillColor=#FFF;spacing=0;spacingTop=12;spacingBottom=12;arcSize=12;absoluteArcSize=1;strokeWidth=1;fontColor=#212121;" parent="h9SwQM1gShD4SIfXYJDy-87" vertex="1">
          <mxGeometry width="120" height="40" as="geometry" />
        </mxCell>
        <mxCell id="h9SwQM1gShD4SIfXYJDy-89" value="" style="rounded=1;whiteSpace=wrap;html=1;fontFamily=VK Sans Display;strokeColor=#7C8A9A;arcsize=12;fillColor=#FFF;spacing=0;spacingTop=12;spacingBottom=12;arcSize=12;absoluteArcSize=1;strokeWidth=1;fontColor=#212121;" parent="h9SwQM1gShD4SIfXYJDy-87" vertex="1">
          <mxGeometry x="10" y="10" width="120" height="40" as="geometry" />
        </mxCell>
        <mxCell id="h9SwQM1gShD4SIfXYJDy-90" value="High-IOPS" style="rounded=1;whiteSpace=wrap;html=1;fontFamily=VK Sans Display;strokeColor=#7C8A9A;arcsize=12;fillColor=#FFF;spacing=0;spacingTop=12;spacingBottom=12;arcSize=12;absoluteArcSize=1;strokeWidth=1;fontColor=#212121;" parent="h9SwQM1gShD4SIfXYJDy-87" vertex="1">
          <mxGeometry x="20" y="20" width="120" height="40" as="geometry" />
        </mxCell>
        <mxCell id="h9SwQM1gShD4SIfXYJDy-91" value="" style="edgeStyle=orthogonalEdgeStyle;rounded=1;orthogonalLoop=1;jettySize=auto;html=1;strokeColor=#7C8A9A;strokeWidth=2;startArrow=open;startFill=0;endArrow=open;endFill=0;" parent="1" source="h9SwQM1gShD4SIfXYJDy-93" target="h9SwQM1gShD4SIfXYJDy-94" edge="1">
          <mxGeometry relative="1" as="geometry" />
        </mxCell>
        <mxCell id="h9SwQM1gShD4SIfXYJDy-92" value="VRRP" style="edgeLabel;html=1;align=center;verticalAlign=middle;resizable=0;points=[];textOpacity=70;" parent="h9SwQM1gShD4SIfXYJDy-91" vertex="1" connectable="0">
          <mxGeometry x="0.0052" y="1" relative="1" as="geometry">
            <mxPoint as="offset" />
          </mxGeometry>
        </mxCell>
        <mxCell id="h9SwQM1gShD4SIfXYJDy-93" value="" style="shape=image;verticalLabelPosition=bottom;labelBackgroundColor=default;verticalAlign=top;aspect=fixed;imageAspect=0;image=data:image/svg+xml,PHN2ZyB4bWxucz0iaHR0cDovL3d3dy53My5vcmcvMjAwMC9zdmciIGZpbGw9Im5vbmUiIHZpZXdCb3g9IjAgMCAzMiAzMiIgaGVpZ2h0PSIzMiIgd2lkdGg9IjMyIj4mI3hhOzxwYXRoIGZpbGw9IiMwMDc3RkYiIGQ9Ik0zLjMxNDI4IDE2QzMuMzE0MjggOC45OTM4NyA4Ljk5Mzg3IDMuMzE0MjggMTYgMy4zMTQyOEMyMy4wMDYxIDMuMzE0MjggMjguNjg1NyA4Ljk5Mzg3IDI4LjY4NTcgMTZDMjguNjg1NyAyMy4wMDYxIDIzLjAwNjEgMjguNjg1NyAxNiAyOC42ODU3QzguOTkzODcgMjguNjg1NyAzLjMxNDI4IDIzLjAwNjEgMy4zMTQyOCAxNlpNMTYgMS4yNTcxNEM3Ljg1Nzc0IDEuMjU3MTQgMS4yNTcxNCA3Ljg1Nzc0IDEuMjU3MTQgMTZDMS4yNTcxNCAyNC4xNDIzIDcuODU3NzQgMzAuNzQyOSAxNiAzMC43NDI5QzI0LjE0MjMgMzAuNzQyOSAzMC43NDI5IDI0LjE0MjMgMzAuNzQyOSAxNkMzMC43NDI5IDcuODU3NzQgMjQuMTQyMyAxLjI1NzE0IDE2IDEuMjU3MTRaTTE5LjUxNzMgNy4zMjYyNUMxOS44NzQzIDcuNjYxMSAxOS44ODgxIDguMjE3NTYgMTkuNTQ4MSA4LjU2OTE1QzE5LjIwOCA4LjkyMDczIDE4LjY0MjggOC45MzQzMSAxOC4yODU3IDguNTk5NDZMMTYuODkyOSA3LjUwMTgzVjE4LjkzMDRMMTYuODkyOCAxOC45MzlWMjQuNDk4MkwxOC4yODU3IDIzLjQwMDVDMTguNjQyOCAyMy4wNjU3IDE5LjIwOCAyMy4wNzkzIDE5LjU0OCAyMy40MzA5QzE5Ljg4ODEgMjMuNzgyNCAxOS44NzQzIDI0LjMzODkgMTkuNTE3MyAyNC42NzM3TDE2LjYxNTggMjcuMTg2MUMxNi4yNzA5IDI3LjUwOTQgMTUuNzI5MSAyNy41MDk0IDE1LjM4NDIgMjcuMTg2MUwxMi40ODI4IDI0LjY3MzdDMTIuMTI1NyAyNC4zMzg5IDEyLjExMTkgMjMuNzgyNCAxMi40NTIgMjMuNDMwOUMxMi43OTIgMjMuMDc5MyAxMy4zNTcyIDIzLjA2NTcgMTMuNzE0MyAyMy40MDA1TDE1LjEwNzEgMjQuNDk4MkwxNS4xMDcxIDEzLjA2OTZMMTUuMTA3MiAxMy4wNjA5VjcuNTAxODNMMTMuNzE0MyA4LjU5OTQ2QzEzLjM1NzIgOC45MzQzMSAxMi43OTIgOC45MjA3MyAxMi40NTIgOC41NjkxNUMxMi4xMTE5IDguMjE3NTYgMTIuMTI1NyA3LjY2MTEgMTIuNDgyOCA3LjMyNjI1TDE1LjM4NDMgNC44MTM5NUMxNS43MjkxIDQuNDkwNTkgMTYuMjcxIDQuNDkwNTkgMTYuNjE1OCA0LjgxMzk1TDE5LjUxNzMgNy4zMjYyNVpNMTAuMDk3NSAxOS45MTM4QzEwLjQ0OTEgMjAuMjUzOSAxMS4wMDU2IDIwLjI0MDEgMTEuMzQwNCAxOS44ODNMMTMuODUyNyAxNi45ODE2QzE0LjE3NjEgMTYuNjM2NyAxNC4xNzYxIDE2LjA5NDkgMTMuODUyNyAxNS43NUwxMS4zNDA0IDEyLjg0ODVDMTEuMDA1NiAxMi40OTE0IDEwLjQ0OTEgMTIuNDc3NyAxMC4wOTc1IDEyLjgxNzdDOS43NDU5NCAxMy4xNTc4IDkuNzMyMzYgMTMuNzIzIDEwLjA2NzIgMTQuMDgwMUwxMS4xNjQ4IDE1LjQ3MjlINS40NTA1NEM0Ljk2NTAyIDE1LjQ3MjkgNC41NzE0MiAxNS44NzI3IDQuNTcxNDIgMTYuMzY1OEM0LjU3MTQyIDE2Ljg1ODkgNC45NjUwMSAxNy4yNTg3IDUuNDUwNTQgMTcuMjU4N0wxMS4xNjQ4IDE3LjI1ODdMMTAuMDY3MiAxOC42NTE1QzkuNzMyMzYgMTkuMDA4NiA5Ljc0NTk0IDE5LjU3MzcgMTAuMDk3NSAxOS45MTM4Wk0yMC42NjM0IDEyLjg0ODVDMjAuOTk4MiAxMi40OTE0IDIxLjU1NDcgMTIuNDc3NyAyMS45MDYzIDEyLjgxNzdDMjIuMjU3OSAxMy4xNTc4IDIyLjI3MTUgMTMuNzIzIDIxLjkzNjYgMTQuMDhMMjAuODM5IDE1LjQ3MjlIMjYuNTUzM0MyNy4wMzg4IDE1LjQ3MjkgMjcuNDMyNCAxNS44NzI2IDI3LjQzMjQgMTYuMzY1OEMyNy40MzI0IDE2Ljg1ODkgMjcuMDM4OCAxNy4yNTg2IDI2LjU1MzMgMTcuMjU4NkgyMC44MzlMMjEuOTM2NiAxOC42NTE1QzIyLjI3MTUgMTkuMDA4NiAyMi4yNTc5IDE5LjU3MzcgMjEuOTA2MyAxOS45MTM4QzIxLjU1NDcgMjAuMjUzOSAyMC45OTgyIDIwLjI0MDEgMjAuNjYzNCAxOS44ODNMMTguMTUxMSAxNi45ODE1QzE3LjgyNzcgMTYuNjM2NyAxNy44Mjc3IDE2LjA5NDggMTguMTUxMSAxNS43NUwyMC42NjM0IDEyLjg0ODVaIiBjbGlwLXJ1bGU9ImV2ZW5vZGQiIGZpbGwtcnVsZT0iZXZlbm9kZCIvPiYjeGE7PC9zdmc+;fontFamily=VK Sans Display;fontColor=#212121;" parent="1" vertex="1">
          <mxGeometry x="424" y="-1072" width="50" height="50" as="geometry" />
        </mxCell>
        <mxCell id="h9SwQM1gShD4SIfXYJDy-94" value="" style="shape=image;verticalLabelPosition=bottom;labelBackgroundColor=default;verticalAlign=top;aspect=fixed;imageAspect=0;image=data:image/svg+xml,PHN2ZyB4bWxucz0iaHR0cDovL3d3dy53My5vcmcvMjAwMC9zdmciIGZpbGw9Im5vbmUiIHZpZXdCb3g9IjAgMCAzMiAzMiIgaGVpZ2h0PSIzMiIgd2lkdGg9IjMyIj4mI3hhOzxwYXRoIGZpbGw9IiMwMDc3RkYiIGQ9Ik0zLjMxNDI4IDE2QzMuMzE0MjggOC45OTM4NyA4Ljk5Mzg3IDMuMzE0MjggMTYgMy4zMTQyOEMyMy4wMDYxIDMuMzE0MjggMjguNjg1NyA4Ljk5Mzg3IDI4LjY4NTcgMTZDMjguNjg1NyAyMy4wMDYxIDIzLjAwNjEgMjguNjg1NyAxNiAyOC42ODU3QzguOTkzODcgMjguNjg1NyAzLjMxNDI4IDIzLjAwNjEgMy4zMTQyOCAxNlpNMTYgMS4yNTcxNEM3Ljg1Nzc0IDEuMjU3MTQgMS4yNTcxNCA3Ljg1Nzc0IDEuMjU3MTQgMTZDMS4yNTcxNCAyNC4xNDIzIDcuODU3NzQgMzAuNzQyOSAxNiAzMC43NDI5QzI0LjE0MjMgMzAuNzQyOSAzMC43NDI5IDI0LjE0MjMgMzAuNzQyOSAxNkMzMC43NDI5IDcuODU3NzQgMjQuMTQyMyAxLjI1NzE0IDE2IDEuMjU3MTRaTTE5LjUxNzMgNy4zMjYyNUMxOS44NzQzIDcuNjYxMSAxOS44ODgxIDguMjE3NTYgMTkuNTQ4MSA4LjU2OTE1QzE5LjIwOCA4LjkyMDczIDE4LjY0MjggOC45MzQzMSAxOC4yODU3IDguNTk5NDZMMTYuODkyOSA3LjUwMTgzVjE4LjkzMDRMMTYuODkyOCAxOC45MzlWMjQuNDk4MkwxOC4yODU3IDIzLjQwMDVDMTguNjQyOCAyMy4wNjU3IDE5LjIwOCAyMy4wNzkzIDE5LjU0OCAyMy40MzA5QzE5Ljg4ODEgMjMuNzgyNCAxOS44NzQzIDI0LjMzODkgMTkuNTE3MyAyNC42NzM3TDE2LjYxNTggMjcuMTg2MUMxNi4yNzA5IDI3LjUwOTQgMTUuNzI5MSAyNy41MDk0IDE1LjM4NDIgMjcuMTg2MUwxMi40ODI4IDI0LjY3MzdDMTIuMTI1NyAyNC4zMzg5IDEyLjExMTkgMjMuNzgyNCAxMi40NTIgMjMuNDMwOUMxMi43OTIgMjMuMDc5MyAxMy4zNTcyIDIzLjA2NTcgMTMuNzE0MyAyMy40MDA1TDE1LjEwNzEgMjQuNDk4MkwxNS4xMDcxIDEzLjA2OTZMMTUuMTA3MiAxMy4wNjA5VjcuNTAxODNMMTMuNzE0MyA4LjU5OTQ2QzEzLjM1NzIgOC45MzQzMSAxMi43OTIgOC45MjA3MyAxMi40NTIgOC41NjkxNUMxMi4xMTE5IDguMjE3NTYgMTIuMTI1NyA3LjY2MTEgMTIuNDgyOCA3LjMyNjI1TDE1LjM4NDMgNC44MTM5NUMxNS43MjkxIDQuNDkwNTkgMTYuMjcxIDQuNDkwNTkgMTYuNjE1OCA0LjgxMzk1TDE5LjUxNzMgNy4zMjYyNVpNMTAuMDk3NSAxOS45MTM4QzEwLjQ0OTEgMjAuMjUzOSAxMS4wMDU2IDIwLjI0MDEgMTEuMzQwNCAxOS44ODNMMTMuODUyNyAxNi45ODE2QzE0LjE3NjEgMTYuNjM2NyAxNC4xNzYxIDE2LjA5NDkgMTMuODUyNyAxNS43NUwxMS4zNDA0IDEyLjg0ODVDMTEuMDA1NiAxMi40OTE0IDEwLjQ0OTEgMTIuNDc3NyAxMC4wOTc1IDEyLjgxNzdDOS43NDU5NCAxMy4xNTc4IDkuNzMyMzYgMTMuNzIzIDEwLjA2NzIgMTQuMDgwMUwxMS4xNjQ4IDE1LjQ3MjlINS40NTA1NEM0Ljk2NTAyIDE1LjQ3MjkgNC41NzE0MiAxNS44NzI3IDQuNTcxNDIgMTYuMzY1OEM0LjU3MTQyIDE2Ljg1ODkgNC45NjUwMSAxNy4yNTg3IDUuNDUwNTQgMTcuMjU4N0wxMS4xNjQ4IDE3LjI1ODdMMTAuMDY3MiAxOC42NTE1QzkuNzMyMzYgMTkuMDA4NiA5Ljc0NTk0IDE5LjU3MzcgMTAuMDk3NSAxOS45MTM4Wk0yMC42NjM0IDEyLjg0ODVDMjAuOTk4MiAxMi40OTE0IDIxLjU1NDcgMTIuNDc3NyAyMS45MDYzIDEyLjgxNzdDMjIuMjU3OSAxMy4xNTc4IDIyLjI3MTUgMTMuNzIzIDIxLjkzNjYgMTQuMDhMMjAuODM5IDE1LjQ3MjlIMjYuNTUzM0MyNy4wMzg4IDE1LjQ3MjkgMjcuNDMyNCAxNS44NzI2IDI3LjQzMjQgMTYuMzY1OEMyNy40MzI0IDE2Ljg1ODkgMjcuMDM4OCAxNy4yNTg2IDI2LjU1MzMgMTcuMjU4NkgyMC44MzlMMjEuOTM2NiAxOC42NTE1QzIyLjI3MTUgMTkuMDA4NiAyMi4yNTc5IDE5LjU3MzcgMjEuOTA2MyAxOS45MTM4QzIxLjU1NDcgMjAuMjUzOSAyMC45OTgyIDIwLjI0MDEgMjAuNjYzNCAxOS44ODNMMTguMTUxMSAxNi45ODE1QzE3LjgyNzcgMTYuNjM2NyAxNy44Mjc3IDE2LjA5NDggMTguMTUxMSAxNS43NUwyMC42NjM0IDEyLjg0ODVaIiBjbGlwLXJ1bGU9ImV2ZW5vZGQiIGZpbGwtcnVsZT0iZXZlbm9kZCIvPiYjeGE7PC9zdmc+;fontFamily=VK Sans Display;fontColor=#212121;" parent="1" vertex="1">
          <mxGeometry x="542.5" y="-1072" width="50" height="50" as="geometry" />
        </mxCell>
        <mxCell id="h9SwQM1gShD4SIfXYJDy-95" value="" style="group;fontFamily=VK Sans Display;fontColor=#212121;" parent="1" vertex="1" connectable="0">
          <mxGeometry x="630" y="-910" width="140" height="60" as="geometry" />
        </mxCell>
        <mxCell id="h9SwQM1gShD4SIfXYJDy-96" value="" style="rounded=1;whiteSpace=wrap;html=1;fontFamily=VK Sans Display;strokeColor=#7C8A9A;arcsize=12;fillColor=#FFF;spacing=0;spacingTop=12;spacingBottom=12;arcSize=12;absoluteArcSize=1;strokeWidth=1;fontColor=#212121;" parent="h9SwQM1gShD4SIfXYJDy-95" vertex="1">
          <mxGeometry width="120" height="40" as="geometry" />
        </mxCell>
        <mxCell id="h9SwQM1gShD4SIfXYJDy-97" value="" style="rounded=1;whiteSpace=wrap;html=1;fontFamily=VK Sans Display;strokeColor=#7C8A9A;arcsize=12;fillColor=#FFF;spacing=0;spacingTop=12;spacingBottom=12;arcSize=12;absoluteArcSize=1;strokeWidth=1;fontColor=#212121;" parent="h9SwQM1gShD4SIfXYJDy-95" vertex="1">
          <mxGeometry x="10" y="10" width="120" height="40" as="geometry" />
        </mxCell>
        <mxCell id="h9SwQM1gShD4SIfXYJDy-98" value="Ceph" style="rounded=1;whiteSpace=wrap;html=1;fontFamily=VK Sans Display;strokeColor=#7C8A9A;arcsize=12;fillColor=#FFF;spacing=0;spacingTop=12;spacingBottom=12;arcSize=12;absoluteArcSize=1;strokeWidth=1;fontColor=#212121;" parent="h9SwQM1gShD4SIfXYJDy-95" vertex="1">
          <mxGeometry x="20" y="20" width="120" height="40" as="geometry" />
        </mxCell>
        <mxCell id="h9SwQM1gShD4SIfXYJDy-99" value="&lt;font face=&quot;VK Sans Display&quot;&gt;&lt;b&gt;AS 64532&lt;/b&gt;&lt;/font&gt;" style="rounded=0;whiteSpace=wrap;html=1;strokeColor=none;" parent="1" vertex="1">
          <mxGeometry x="51" y="-550" width="80" height="20" as="geometry" />
        </mxCell>
        <mxCell id="h9SwQM1gShD4SIfXYJDy-100" value="" style="rounded=1;whiteSpace=wrap;html=1;strokeColor=#7C8A9A;strokeWidth=2;fontColor=#212121;fillColor=none;dashed=1;arcSize=12;absoluteArcSize=1;fontFamily=VK Sans Display;align=right;labelPosition=left;verticalLabelPosition=top;verticalAlign=bottom;" parent="1" vertex="1">
          <mxGeometry x="390" y="-1130" width="230" height="123" as="geometry" />
        </mxCell>
        <mxCell id="h9SwQM1gShD4SIfXYJDy-101" value="&lt;b style=&quot;border-color: var(--border-color); color: rgb(33, 33, 33); font-family: &amp;quot;VK Sans Display&amp;quot;; text-align: right;&quot;&gt;AS 64512&lt;/b&gt;" style="rounded=0;whiteSpace=wrap;html=1;strokeColor=none;" parent="1" vertex="1">
          <mxGeometry x="391" y="-1126" width="80" height="20" as="geometry" />
        </mxCell>
        <mxCell id="h9SwQM1gShD4SIfXYJDy-102" value="" style="endArrow=open;html=1;rounded=1;fontSize=14;fontColor=#212121;strokeColor=#7C8A9A;strokeWidth=2;exitX=1;exitY=0.5;exitDx=0;exitDy=0;fontFamily=VK Sans Display;entryX=1;entryY=0.5;entryDx=0;entryDy=0;startArrow=open;startFill=0;endFill=0;" parent="1" source="h9SwQM1gShD4SIfXYJDy-54" target="h9SwQM1gShD4SIfXYJDy-100" edge="1">
          <mxGeometry width="50" height="50" relative="1" as="geometry">
            <mxPoint x="810" y="-532" as="sourcePoint" />
            <mxPoint x="928" y="-1050" as="targetPoint" />
            <Array as="points">
              <mxPoint x="840" y="-494" />
              <mxPoint x="840" y="-1068" />
            </Array>
          </mxGeometry>
        </mxCell>
        <mxCell id="h9SwQM1gShD4SIfXYJDy-103" value="BGP" style="edgeLabel;html=1;align=center;verticalAlign=middle;resizable=0;points=[];fontColor=#212121;textOpacity=70;fontFamily=VK Sans Display;fontSize=12;" parent="h9SwQM1gShD4SIfXYJDy-102" vertex="1" connectable="0">
          <mxGeometry x="-0.0499" y="-1" relative="1" as="geometry">
            <mxPoint as="offset" />
          </mxGeometry>
        </mxCell>
      </root>
    </mxGraphModel>
  </diagram>
  <diagram id="4VIVoj1aq5iDz2STS0i8" name="nonet">
    <mxGraphModel dx="1434" dy="870" grid="1" gridSize="10" guides="1" tooltips="1" connect="1" arrows="1" fold="1" page="1" pageScale="1" pageWidth="827" pageHeight="1169" math="0" shadow="0">
      <root>
        <mxCell id="0" />
        <mxCell id="1" parent="0" />
        <mxCell id="c7yCDP0rrZjZH6Pq2Brk-51" value="" style="rounded=1;whiteSpace=wrap;html=1;fontFamily=VK Sans Display;strokeColor=none;arcsize=12;fillColor=#FFFFFF;spacing=0;spacingTop=12;spacingBottom=12;arcSize=12;absoluteArcSize=1;fontSize=14;fontColor=#212121;" vertex="1" parent="1">
          <mxGeometry x="18" y="40" width="1390" height="560" as="geometry" />
        </mxCell>
        <mxCell id="c7yCDP0rrZjZH6Pq2Brk-52" value="Пользователь" style="shape=image;verticalLabelPosition=bottom;labelBackgroundColor=default;verticalAlign=top;aspect=fixed;imageAspect=0;image=data:image/svg+xml,PHN2ZyB4bWxucz0iaHR0cDovL3d3dy53My5vcmcvMjAwMC9zdmciIGZpbGw9Im5vbmUiIHZpZXdCb3g9IjAgMCAxOSAyMSIgaGVpZ2h0PSIyMSIgd2lkdGg9IjE5Ij4mI3hhOzxwYXRoIGZpbGw9IiMwMDc3RkYiIGQ9Ik0xMi41IDUuNUMxMi41IDMuNTY2MDMgMTAuOTM0IDIgOSAyQzcuMDY2MDMgMiA1LjUgMy41NjYwMyA1LjUgNS41QzUuNSA3LjQzMzk3IDcuMDY2MDMgOSA5IDlDMTAuOTM0IDkgMTIuNSA3LjQzMzk3IDEyLjUgNS41Wk0xNC41IDUuNUMxNC41IDguNTM4NTMgMTIuMDM4NSAxMSA5IDExQzUuOTYxNDcgMTEgMy41IDguNTM4NTMgMy41IDUuNUMzLjUgMi40NjE0NyA1Ljk2MTQ3IDAgOSAwQzEyLjAzODUgMCAxNC41IDIuNDYxNDcgMTQuNSA1LjVaTTIgMTcuNjQyOUMyIDE4LjU4NjIgMS45MTk4NyAxOC41IDIuNDU1ODggMTguNUgxNi4wNDQxQzE2LjU4MDEgMTguNSAxNi41IDE4LjU4NjIgMTYuNSAxNy42NDI5QzE2LjUgMTUuMzU0NyAxMy4xOTYgMTQgOS4yNSAxNEM1LjMwNDAyIDE0IDIgMTUuMzU0NyAyIDE3LjY0MjlaTTAgMTcuNjQyOUMwIDEzLjc2MjYgNC4yOTg5MiAxMiA5LjI1IDEyQzE0LjIwMTEgMTIgMTguNSAxMy43NjI2IDE4LjUgMTcuNjQyOUMxOC41IDE5LjY1OTMgMTcuNzE4OSAyMC41IDE2LjA0NDEgMjAuNUgyLjQ1NTg4QzAuNzgxMTA5IDIwLjUgMCAxOS42NTkzIDAgMTcuNjQyOVoiLz4mI3hhOzwvc3ZnPg==;fontFamily=VK Sans Display;fontSize=14;fontColor=#212121;" vertex="1" parent="1">
          <mxGeometry x="59" y="293.1500000000001" width="38.9" height="43" as="geometry" />
        </mxCell>
        <mxCell id="c7yCDP0rrZjZH6Pq2Brk-53" value="Администратор" style="shape=image;verticalLabelPosition=bottom;labelBackgroundColor=default;verticalAlign=top;aspect=fixed;imageAspect=0;image=data:image/svg+xml,PHN2ZyB4bWxucz0iaHR0cDovL3d3dy53My5vcmcvMjAwMC9zdmciIGZpbGw9Im5vbmUiIHZpZXdCb3g9IjAgMCAxOSAyMSIgaGVpZ2h0PSIyMSIgd2lkdGg9IjE5Ij4mI3hhOzxwYXRoIGZpbGw9IiMwMDc3RkYiIGQ9Ik0xMi41IDUuNUMxMi41IDMuNTY2MDMgMTAuOTM0IDIgOSAyQzcuMDY2MDMgMiA1LjUgMy41NjYwMyA1LjUgNS41QzUuNSA3LjQzMzk3IDcuMDY2MDMgOSA5IDlDMTAuOTM0IDkgMTIuNSA3LjQzMzk3IDEyLjUgNS41Wk0xNC41IDUuNUMxNC41IDguNTM4NTMgMTIuMDM4NSAxMSA5IDExQzUuOTYxNDcgMTEgMy41IDguNTM4NTMgMy41IDUuNUMzLjUgMi40NjE0NyA1Ljk2MTQ3IDAgOSAwQzEyLjAzODUgMCAxNC41IDIuNDYxNDcgMTQuNSA1LjVaTTIgMTcuNjQyOUMyIDE4LjU4NjIgMS45MTk4NyAxOC41IDIuNDU1ODggMTguNUgxNi4wNDQxQzE2LjU4MDEgMTguNSAxNi41IDE4LjU4NjIgMTYuNSAxNy42NDI5QzE2LjUgMTUuMzU0NyAxMy4xOTYgMTQgOS4yNSAxNEM1LjMwNDAyIDE0IDIgMTUuMzU0NyAyIDE3LjY0MjlaTTAgMTcuNjQyOUMwIDEzLjc2MjYgNC4yOTg5MiAxMiA5LjI1IDEyQzE0LjIwMTEgMTIgMTguNSAxMy43NjI2IDE4LjUgMTcuNjQyOUMxOC41IDE5LjY1OTMgMTcuNzE4OSAyMC41IDE2LjA0NDEgMjAuNUgyLjQ1NTg4QzAuNzgxMTA5IDIwLjUgMCAxOS42NTkzIDAgMTcuNjQyOVoiLz4mI3hhOzwvc3ZnPg==;fontFamily=VK Sans Display;fontSize=14;fontColor=#212121;" vertex="1" parent="1">
          <mxGeometry x="59" y="51.14999999999998" width="38.9" height="43" as="geometry" />
        </mxCell>
        <mxCell id="c7yCDP0rrZjZH6Pq2Brk-54" value="Корпоративная сеть &#xa;передачи данных" style="shape=image;verticalLabelPosition=bottom;labelBackgroundColor=default;verticalAlign=top;aspect=fixed;imageAspect=0;image=data:image/svg+xml,PHN2ZyB4bWxucz0iaHR0cDovL3d3dy53My5vcmcvMjAwMC9zdmciIGZpbGw9Im5vbmUiIHZpZXdCb3g9IjAgMCAyNCAyNCIgaGVpZ2h0PSIyNCIgd2lkdGg9IjI0Ij4mI3hhOzxwYXRoIGZpbGw9IiMwMDc3RkYiIGQ9Ik0yMy4wODMzIDUuMDcyOTFDMjMuMDgzMyA3LjM2ODM0IDIxLjIyMjUgOS4yMjkxNiAxOC45MjcxIDkuMjI5MTZDMTguMzcwOSA5LjIyOTE2IDE3Ljg0MDIgOS4xMTk5MSAxNy4zNTU0IDguOTIxNzFDMTcuMDUxNyA4Ljc5NzU2IDE2LjY5MzQgOC44NDkwOCAxNi40NzQ3IDkuMDkzNjVMMTQuMjgzMSAxMS41NDQ2QzE0LjA0OCAxMS44MDc1IDE0LjA0OCAxMi4yMDUgMTQuMjgzMSAxMi40NjhMMTYuNDY2IDE0LjkwOThDMTYuNjg1IDE1LjE1NDkgMTcuMDQ0MSAxNS4yMDYyIDE3LjM0ODIgMTUuMDgxMkMxNy44MzUgMTQuODgxMiAxOC4zNjgxIDE0Ljc3MDggMTguOTI3MSAxNC43NzA4QzIxLjIyMjUgMTQuNzcwOCAyMy4wODMzIDE2LjYzMTYgMjMuMDgzMyAxOC45MjcxQzIzLjA4MzMgMjEuMjIyNSAyMS4yMjI1IDIzLjA4MzMgMTguOTI3MSAyMy4wODMzQzE2LjYzMTYgMjMuMDgzMyAxNC43NzA4IDIxLjIyMjUgMTQuNzcwOCAxOC45MjcxQzE0Ljc3MDggMTguMzI3NiAxNC44OTc4IDE3Ljc1NzcgMTUuMTI2MiAxNy4yNDI5QzE1LjI0OTUgMTYuOTY1IDE1LjIyMzUgMTYuNjM1IDE1LjAyMDYgMTYuNDA4NkwxMi4yMDY1IDEzLjI2OTRDMTIuMDc1MSAxMy4xMjI4IDExLjg4NzUgMTMuMDM5MSAxMS42OTA3IDEzLjAzOTFIOS42MzUyMUM5LjMxOTE0IDEzLjAzOTEgOS4wNDg3NyAxMy4yNTU3IDguOTMwOTEgMTMuNTQ5QzguMzE2NzMgMTUuMDc3MyA2LjgyMDgzIDE2LjE1NjIgNS4wNzI5MSAxNi4xNTYyQzIuNzc3NDcgMTYuMTU2MiAwLjkxNjY1NiAxNC4yOTU0IDAuOTE2NjU2IDEyQzAuOTE2NjU2IDkuNzA0NTYgMi43Nzc0NyA3Ljg0Mzc0IDUuMDcyOTEgNy44NDM3NEM2LjgyMDgzIDcuODQzNzQgOC4zMTY3NCA4LjkyMjczIDguOTMwOTEgMTAuNDUxQzkuMDQ4NzcgMTAuNzQ0MyA5LjMxOTE0IDEwLjk2MDkgOS42MzUyMSAxMC45NjA5SDExLjY5MTRDMTEuODg3OCAxMC45NjA5IDEyLjA3NSAxMC44Nzc1IDEyLjIwNjQgMTAuNzMxNUwxNS4wMjMyIDcuNjAwMTVDMTUuMjI3MiA3LjM3MzM5IDE1LjI1MzMgNy4wNDIwOSAxNS4xMjkxIDYuNzYzNTFDMTQuODk4OCA2LjI0NzAyIDE0Ljc3MDggNS42NzQ5MSAxNC43NzA4IDUuMDcyOTFDMTQuNzcwOCAyLjc3NzQ3IDE2LjYzMTYgMC45MTY2NTYgMTguOTI3MSAwLjkxNjY1NkMyMS4yMjI1IDAuOTE2NjU2IDIzLjA4MzMgMi43Nzc0NyAyMy4wODMzIDUuMDcyOTFaTTIxLjAwNTIgNS4wNzI5MUMyMS4wMDUyIDYuMjIwNjIgMjAuMDc0OCA3LjE1MTAzIDE4LjkyNzEgNy4xNTEwM0MxNy43Nzk0IDcuMTUxMDMgMTYuODQ4OSA2LjIyMDYyIDE2Ljg0ODkgNS4wNzI5MUMxNi44NDg5IDMuOTI1MTkgMTcuNzc5NCAyLjk5NDc4IDE4LjkyNzEgMi45OTQ3OEMyMC4wNzQ4IDIuOTk0NzggMjEuMDA1MiAzLjkyNTE5IDIxLjAwNTIgNS4wNzI5MVpNNy4xNTEwMyAxMkM3LjE1MTAzIDEzLjE0NzcgNi4yMjA2MiAxNC4wNzgxIDUuMDcyOTEgMTQuMDc4MUMzLjkyNTE5IDE0LjA3ODEgMi45OTQ3OCAxMy4xNDc3IDIuOTk0NzggMTJDMi45OTQ3OCAxMC44NTIzIDMuOTI1MTkgOS45MjE4NiA1LjA3MjkxIDkuOTIxODZDNi4yMjA2MiA5LjkyMTg2IDcuMTUxMDMgMTAuODUyMyA3LjE1MTAzIDEyWk0xOC45MjcxIDIxLjAwNTJDMjAuMDc0OCAyMS4wMDUyIDIxLjAwNTIgMjAuMDc0OCAyMS4wMDUyIDE4LjkyNzFDMjEuMDA1MiAxNy43Nzk0IDIwLjA3NDggMTYuODQ4OSAxOC45MjcxIDE2Ljg0ODlDMTcuNzc5NCAxNi44NDg5IDE2Ljg0ODkgMTcuNzc5NCAxNi44NDg5IDE4LjkyNzFDMTYuODQ4OSAyMC4wNzQ4IDE3Ljc3OTQgMjEuMDA1MiAxOC45MjcxIDIxLjAwNTJaIiBjbGlwLXJ1bGU9ImV2ZW5vZGQiIGZpbGwtcnVsZT0iZXZlbm9kZCIvPiYjeGE7PC9zdmc+;fontFamily=VK Sans Display;fontSize=14;fontColor=#212121;" vertex="1" parent="1">
          <mxGeometry x="198" y="58" width="43" height="43" as="geometry" />
        </mxCell>
        <mxCell id="c7yCDP0rrZjZH6Pq2Brk-55" style="rounded=0;orthogonalLoop=1;jettySize=auto;html=1;strokeColor=#7C8A9A;endArrow=oval;endFill=1;startArrow=oval;startFill=1;strokeWidth=2;labelBackgroundColor=none;fontFamily=VK Sans Display;fontColor=#212121;" edge="1" parent="1">
          <mxGeometry relative="1" as="geometry">
            <mxPoint x="728" y="246" as="sourcePoint" />
            <mxPoint x="728" y="154" as="targetPoint" />
          </mxGeometry>
        </mxCell>
        <mxCell id="c7yCDP0rrZjZH6Pq2Brk-56" style="rounded=0;orthogonalLoop=1;jettySize=auto;html=1;strokeColor=#7C8A9A;endArrow=oval;endFill=1;startArrow=oval;startFill=1;strokeWidth=2;labelBackgroundColor=none;fontFamily=VK Sans Display;fontColor=#212121;" edge="1" parent="1">
          <mxGeometry relative="1" as="geometry">
            <mxPoint x="1248" y="246" as="sourcePoint" />
            <mxPoint x="1248" y="154" as="targetPoint" />
          </mxGeometry>
        </mxCell>
        <mxCell id="c7yCDP0rrZjZH6Pq2Brk-57" style="rounded=0;orthogonalLoop=1;jettySize=auto;html=1;strokeColor=#7C8A9A;endArrow=oval;endFill=1;startArrow=oval;startFill=1;strokeWidth=2;labelBackgroundColor=none;fontFamily=VK Sans Display;fontColor=#212121;" edge="1" parent="1">
          <mxGeometry relative="1" as="geometry">
            <mxPoint x="514" y="486" as="sourcePoint" />
            <mxPoint x="514" y="334" as="targetPoint" />
          </mxGeometry>
        </mxCell>
        <mxCell id="c7yCDP0rrZjZH6Pq2Brk-58" style="rounded=0;orthogonalLoop=1;jettySize=auto;html=1;strokeColor=#7C8A9A;endArrow=oval;endFill=1;startArrow=oval;startFill=1;strokeWidth=2;labelBackgroundColor=none;fontFamily=VK Sans Display;fontColor=#212121;" edge="1" parent="1">
          <mxGeometry relative="1" as="geometry">
            <mxPoint x="514" y="246" as="sourcePoint" />
            <mxPoint x="514" y="154" as="targetPoint" />
          </mxGeometry>
        </mxCell>
        <mxCell id="c7yCDP0rrZjZH6Pq2Brk-59" style="rounded=0;orthogonalLoop=1;jettySize=auto;html=1;strokeColor=#7C8A9A;endArrow=oval;endFill=1;startArrow=oval;startFill=1;strokeWidth=2;labelBackgroundColor=none;fontFamily=VK Sans Display;fontColor=#212121;" edge="1" parent="1">
          <mxGeometry relative="1" as="geometry">
            <mxPoint x="788" y="246" as="sourcePoint" />
            <mxPoint x="788" y="94" as="targetPoint" />
          </mxGeometry>
        </mxCell>
        <mxCell id="c7yCDP0rrZjZH6Pq2Brk-60" style="rounded=0;orthogonalLoop=1;jettySize=auto;html=1;strokeColor=#7C8A9A;endArrow=oval;endFill=1;startArrow=oval;startFill=1;strokeWidth=2;labelBackgroundColor=none;fontFamily=VK Sans Display;fontColor=#212121;" edge="1" parent="1">
          <mxGeometry relative="1" as="geometry">
            <mxPoint x="554" y="246" as="sourcePoint" />
            <mxPoint x="554" y="94" as="targetPoint" />
          </mxGeometry>
        </mxCell>
        <mxCell id="c7yCDP0rrZjZH6Pq2Brk-61" value="&lt;font style=&quot;font-size: 18px;&quot;&gt;K8s Internal Pods (Subnet)&lt;/font&gt;" style="rounded=1;whiteSpace=wrap;html=1;strokeColor=none;fillColor=#F6F7F9;fontColor=#212121;labelBackgroundColor=none;fontFamily=VK Sans Display;" vertex="1" parent="1">
          <mxGeometry x="748" y="490" width="242" height="40" as="geometry" />
        </mxCell>
        <mxCell id="c7yCDP0rrZjZH6Pq2Brk-62" value="&lt;font style=&quot;font-size: 18px;&quot;&gt;K8s Internal&amp;nbsp;Services (Subnet)&lt;/font&gt;" style="rounded=1;whiteSpace=wrap;html=1;strokeColor=none;fillColor=#F6F7F9;fontColor=#212121;labelBackgroundColor=none;fontFamily=VK Sans Display;" vertex="1" parent="1">
          <mxGeometry x="718" y="550" width="262" height="40" as="geometry" />
        </mxCell>
        <mxCell id="c7yCDP0rrZjZH6Pq2Brk-63" value="&lt;font style=&quot;font-size: 18px;&quot;&gt;Cloud Tunnel (VLAN/Subnet)&lt;/font&gt;" style="rounded=1;whiteSpace=wrap;html=1;strokeColor=none;fillColor=#F6F7F9;labelBackgroundColor=none;fontFamily=VK Sans Display;fontColor=#212121;" vertex="1" parent="1">
          <mxGeometry x="338" y="50" width="1060" height="40" as="geometry" />
        </mxCell>
        <mxCell id="c7yCDP0rrZjZH6Pq2Brk-64" value="&lt;font style=&quot;font-size: 18px;&quot;&gt;Ceph External (VLAN/Subnet)&lt;/font&gt;" style="rounded=1;whiteSpace=wrap;html=1;strokeColor=none;fillColor=#F6F7F9;labelBackgroundColor=none;fontFamily=VK Sans Display;fontColor=#212121;" vertex="1" parent="1">
          <mxGeometry x="338" y="110" width="1060" height="40" as="geometry" />
        </mxCell>
        <mxCell id="c7yCDP0rrZjZH6Pq2Brk-65" value="&lt;font style=&quot;font-size: 18px;&quot;&gt;Cloud External (VLAN/Subnet)&lt;/font&gt;" style="rounded=1;whiteSpace=wrap;html=1;strokeColor=none;fillColor=#F6F7F9;labelBackgroundColor=none;fontFamily=VK Sans Display;fontColor=#212121;" vertex="1" parent="1">
          <mxGeometry x="338" y="490" width="312" height="40" as="geometry" />
        </mxCell>
        <mxCell id="c7yCDP0rrZjZH6Pq2Brk-66" value="&lt;font style=&quot;font-size: 18px;&quot;&gt;Ceph Internal (VLAN/Subnet)&lt;/font&gt;" style="rounded=1;whiteSpace=wrap;html=1;arcSize=12;strokeColor=none;fillColor=#F6F7F9;labelBackgroundColor=none;fontFamily=VK Sans Display;fontColor=#212121;" vertex="1" parent="1">
          <mxGeometry x="1098" y="550" width="300" height="40" as="geometry" />
        </mxCell>
        <mxCell id="c7yCDP0rrZjZH6Pq2Brk-67" value="&lt;span style=&quot;font-size: 18px; font-style: normal; font-variant-ligatures: normal; font-variant-caps: normal; font-weight: 400; letter-spacing: normal; orphans: 2; text-align: center; text-indent: 0px; text-transform: none; widows: 2; word-spacing: 0px; -webkit-text-stroke-width: 0px; text-decoration-thickness: initial; text-decoration-style: initial; text-decoration-color: initial; float: none; display: inline !important;&quot;&gt;Вычислительные узлы&lt;/span&gt;" style="rounded=1;whiteSpace=wrap;html=1;arcSize=3;strokeColor=none;fillColor=#F6F7F9;labelBackgroundColor=none;fontFamily=VK Sans Display;fontColor=#212121;" vertex="1" parent="1">
          <mxGeometry x="434" y="250" width="160" height="80" as="geometry" />
        </mxCell>
        <mxCell id="c7yCDP0rrZjZH6Pq2Brk-68" value="&lt;span style=&quot;font-size: 18px; font-style: normal; font-variant-ligatures: normal; font-variant-caps: normal; font-weight: 400; letter-spacing: normal; orphans: 2; text-align: center; text-indent: 0px; text-transform: none; widows: 2; word-spacing: 0px; -webkit-text-stroke-width: 0px; text-decoration-thickness: initial; text-decoration-style: initial; text-decoration-color: initial; float: none; display: inline !important;&quot;&gt;Контроллеры&lt;/span&gt;" style="rounded=1;whiteSpace=wrap;html=1;arcSize=3;strokeColor=none;fillColor=#F6F7F9;labelBackgroundColor=none;fontFamily=VK Sans Display;fontColor=#212121;" vertex="1" parent="1">
          <mxGeometry x="608" y="250" width="240" height="80" as="geometry" />
        </mxCell>
        <mxCell id="c7yCDP0rrZjZH6Pq2Brk-69" value="&lt;font style=&quot;font-size: 18px;&quot;&gt;Public API Transport (VLAN/Subnet)&lt;/font&gt;" style="rounded=1;whiteSpace=wrap;html=1;strokeColor=none;fillColor=#F6F7F9;labelBackgroundColor=none;fontFamily=VK Sans Display;fontColor=#212121;" vertex="1" parent="1">
          <mxGeometry x="338" y="550" width="362" height="40" as="geometry" />
        </mxCell>
        <mxCell id="c7yCDP0rrZjZH6Pq2Brk-70" value="&lt;font&gt;&lt;span style=&quot;font-size: 18px;&quot;&gt;Public API Loopbacks&lt;/span&gt;&lt;/font&gt;" style="rounded=1;whiteSpace=wrap;html=1;strokeColor=none;fillColor=#F6F7F9;fontColor=#212121;labelBackgroundColor=none;fontFamily=VK Sans Display;" vertex="1" parent="1">
          <mxGeometry x="804" y="370" width="220" height="40" as="geometry" />
        </mxCell>
        <mxCell id="c7yCDP0rrZjZH6Pq2Brk-71" value="&lt;font&gt;&lt;span style=&quot;font-size: 18px;&quot;&gt;Private API Loopbacks&lt;/span&gt;&lt;/font&gt;" style="rounded=1;whiteSpace=wrap;html=1;strokeColor=none;fillColor=#F6F7F9;fontColor=#212121;labelBackgroundColor=none;fontFamily=VK Sans Display;" vertex="1" parent="1">
          <mxGeometry x="778" y="430" width="220" height="40" as="geometry" />
        </mxCell>
        <mxCell id="c7yCDP0rrZjZH6Pq2Brk-72" value="&lt;span style=&quot;font-size: 18px; font-style: normal; font-variant-ligatures: normal; font-variant-caps: normal; font-weight: 400; letter-spacing: normal; orphans: 2; text-align: center; text-indent: 0px; text-transform: none; widows: 2; word-spacing: 0px; -webkit-text-stroke-width: 0px; text-decoration-thickness: initial; text-decoration-style: initial; text-decoration-color: initial; float: none; display: inline !important;&quot;&gt;Deploy&lt;/span&gt;" style="rounded=1;whiteSpace=wrap;html=1;arcSize=3;strokeColor=none;labelBackgroundColor=none;fillColor=#F6F7F9;fontFamily=VK Sans Display;fontColor=#212121;" vertex="1" parent="1">
          <mxGeometry x="338" y="250" width="82" height="80" as="geometry" />
        </mxCell>
        <mxCell id="c7yCDP0rrZjZH6Pq2Brk-73" value="&lt;font&gt;&lt;span style=&quot;font-size: 18px;&quot;&gt;Мониторинг и логирование&lt;/span&gt;&lt;/font&gt;" style="rounded=1;whiteSpace=wrap;html=1;arcSize=3;strokeColor=none;fillColor=#F6F7F9;labelBackgroundColor=none;fontFamily=VK Sans Display;fontColor=#212121;" vertex="1" parent="1">
          <mxGeometry x="1017" y="250" width="140" height="80" as="geometry" />
        </mxCell>
        <mxCell id="c7yCDP0rrZjZH6Pq2Brk-74" value="&lt;font&gt;&lt;span style=&quot;font-size: 18px;&quot;&gt;Ceph&lt;/span&gt;&lt;/font&gt;" style="rounded=1;whiteSpace=wrap;html=1;arcSize=3;strokeColor=none;fillColor=#F6F7F9;labelBackgroundColor=none;fontFamily=VK Sans Display;fontColor=#212121;" vertex="1" parent="1">
          <mxGeometry x="1166" y="250" width="108" height="80" as="geometry" />
        </mxCell>
        <mxCell id="c7yCDP0rrZjZH6Pq2Brk-75" style="rounded=0;orthogonalLoop=1;jettySize=auto;html=1;strokeColor=#7C8A9A;endArrow=oval;endFill=1;startArrow=oval;startFill=1;strokeWidth=2;labelBackgroundColor=none;fontFamily=VK Sans Display;fontColor=#212121;" edge="1" parent="1">
          <mxGeometry relative="1" as="geometry">
            <mxPoint x="798" y="426" as="sourcePoint" />
            <mxPoint x="798" y="334" as="targetPoint" />
          </mxGeometry>
        </mxCell>
        <mxCell id="c7yCDP0rrZjZH6Pq2Brk-76" style="rounded=0;orthogonalLoop=1;jettySize=auto;html=1;strokeColor=#7C8A9A;endArrow=oval;endFill=1;startArrow=oval;startFill=1;strokeWidth=2;labelBackgroundColor=none;fontFamily=VK Sans Display;fontColor=#212121;" edge="1" parent="1">
          <mxGeometry relative="1" as="geometry">
            <mxPoint x="828" y="366" as="sourcePoint" />
            <mxPoint x="828" y="334" as="targetPoint" />
          </mxGeometry>
        </mxCell>
        <mxCell id="c7yCDP0rrZjZH6Pq2Brk-77" style="rounded=0;orthogonalLoop=1;jettySize=auto;html=1;strokeColor=#7C8A9A;endArrow=oval;endFill=1;startArrow=oval;startFill=1;strokeWidth=2;labelBackgroundColor=none;fontFamily=VK Sans Display;fontColor=#212121;" edge="1" parent="1">
          <mxGeometry relative="1" as="geometry">
            <mxPoint x="1221" y="546" as="sourcePoint" />
            <mxPoint x="1221" y="334" as="targetPoint" />
          </mxGeometry>
        </mxCell>
        <mxCell id="c7yCDP0rrZjZH6Pq2Brk-78" style="rounded=0;orthogonalLoop=1;jettySize=auto;html=1;strokeColor=#7C8A9A;endArrow=oval;endFill=1;startArrow=oval;startFill=1;strokeWidth=2;entryX=0.288;entryY=-0.08;entryDx=0;entryDy=0;entryPerimeter=0;labelBackgroundColor=none;fontFamily=VK Sans Display;fontColor=#212121;" edge="1" parent="1">
          <mxGeometry relative="1" as="geometry">
            <mxPoint x="628" y="486" as="sourcePoint" />
            <mxPoint x="628" y="334" as="targetPoint" />
          </mxGeometry>
        </mxCell>
        <mxCell id="c7yCDP0rrZjZH6Pq2Brk-79" style="rounded=0;orthogonalLoop=1;jettySize=auto;html=1;strokeColor=#7C8A9A;endArrow=oval;endFill=1;startArrow=oval;startFill=1;strokeWidth=2;labelBackgroundColor=none;fontFamily=VK Sans Display;fontColor=#212121;" edge="1" parent="1">
          <mxGeometry relative="1" as="geometry">
            <mxPoint x="668" y="246" as="sourcePoint" />
            <mxPoint x="668" y="214" as="targetPoint" />
          </mxGeometry>
        </mxCell>
        <mxCell id="c7yCDP0rrZjZH6Pq2Brk-80" style="edgeStyle=orthogonalEdgeStyle;rounded=1;orthogonalLoop=1;jettySize=auto;html=1;exitX=0.5;exitY=0;exitDx=0;exitDy=0;strokeWidth=2;strokeColor=#7C8A9A;labelBackgroundColor=none;entryX=0;entryY=0.75;entryDx=0;entryDy=0;endArrow=open;endFill=0;fontFamily=VK Sans Display;fontColor=#212121;" edge="1" parent="1">
          <mxGeometry relative="1" as="geometry">
            <mxPoint x="113" y="203.75" as="targetPoint" />
            <mxPoint x="78" y="289.79999999999995" as="sourcePoint" />
            <Array as="points">
              <mxPoint x="78" y="204" />
            </Array>
          </mxGeometry>
        </mxCell>
        <mxCell id="c7yCDP0rrZjZH6Pq2Brk-81" style="edgeStyle=orthogonalEdgeStyle;rounded=1;orthogonalLoop=1;jettySize=auto;html=1;strokeColor=#7C8A9A;strokeWidth=2;labelBackgroundColor=none;entryX=0;entryY=0.25;entryDx=0;entryDy=0;endArrow=open;endFill=0;fontFamily=VK Sans Display;fontColor=#212121;" edge="1" parent="1">
          <mxGeometry relative="1" as="geometry">
            <mxPoint x="78" y="120" as="sourcePoint" />
            <Array as="points">
              <mxPoint x="78" y="188" />
            </Array>
            <mxPoint x="113" y="188" as="targetPoint" />
          </mxGeometry>
        </mxCell>
        <mxCell id="c7yCDP0rrZjZH6Pq2Brk-82" style="edgeStyle=orthogonalEdgeStyle;rounded=1;orthogonalLoop=1;jettySize=auto;html=1;strokeWidth=2;strokeColor=#7C8A9A;labelBackgroundColor=none;endArrow=open;endFill=0;exitX=0.5;exitY=0;exitDx=0;exitDy=0;entryX=0;entryY=0.5;entryDx=0;entryDy=0;fontFamily=VK Sans Display;fontColor=#212121;" edge="1" parent="1" target="c7yCDP0rrZjZH6Pq2Brk-54">
          <mxGeometry relative="1" as="geometry">
            <mxPoint x="140.5" y="162.5" as="sourcePoint" />
            <mxPoint x="178.47059550104677" y="80.00000000000023" as="targetPoint" />
            <Array as="points">
              <mxPoint x="141" y="80" />
            </Array>
          </mxGeometry>
        </mxCell>
        <mxCell id="c7yCDP0rrZjZH6Pq2Brk-83" style="edgeStyle=orthogonalEdgeStyle;rounded=1;orthogonalLoop=1;jettySize=auto;html=1;entryX=0;entryY=0.5;entryDx=0;entryDy=0;strokeColor=#7C8A9A;strokeWidth=2;exitX=1;exitY=0.5;exitDx=0;exitDy=0;endArrow=open;endFill=0;fontFamily=VK Sans Display;fontColor=#212121;" edge="1" parent="1" target="c7yCDP0rrZjZH6Pq2Brk-97">
          <mxGeometry relative="1" as="geometry">
            <mxPoint x="168" y="190" as="sourcePoint" />
          </mxGeometry>
        </mxCell>
        <mxCell id="c7yCDP0rrZjZH6Pq2Brk-84" value="BGP Peering" style="edgeLabel;html=1;align=center;verticalAlign=middle;resizable=0;points=[];fontFamily=VK Sans Display;fontSize=12;labelBackgroundColor=default;textOpacity=70;fontColor=#212121;" vertex="1" connectable="0" parent="c7yCDP0rrZjZH6Pq2Brk-83">
          <mxGeometry x="0.0268" y="-1" relative="1" as="geometry">
            <mxPoint as="offset" />
          </mxGeometry>
        </mxCell>
        <mxCell id="c7yCDP0rrZjZH6Pq2Brk-85" style="edgeStyle=orthogonalEdgeStyle;rounded=1;orthogonalLoop=1;jettySize=auto;html=1;exitX=1;exitY=0.75;exitDx=0;exitDy=0;entryX=0;entryY=0.5;entryDx=0;entryDy=0;strokeColor=#7C8A9A;strokeWidth=2;endArrow=open;endFill=0;fontFamily=VK Sans Display;fontColor=#212121;" edge="1" parent="1" target="c7yCDP0rrZjZH6Pq2Brk-65">
          <mxGeometry relative="1" as="geometry">
            <mxPoint x="265.7142682756696" y="456.1428571428571" as="targetPoint" />
            <mxPoint x="168" y="203.75" as="sourcePoint" />
          </mxGeometry>
        </mxCell>
        <mxCell id="c7yCDP0rrZjZH6Pq2Brk-86" style="edgeStyle=orthogonalEdgeStyle;rounded=1;orthogonalLoop=1;jettySize=auto;html=1;entryX=0;entryY=0.5;entryDx=0;entryDy=0;strokeColor=#7C8A9A;strokeWidth=2;endArrow=open;endFill=0;fontFamily=VK Sans Display;fontColor=#212121;" edge="1" parent="1" target="c7yCDP0rrZjZH6Pq2Brk-69">
          <mxGeometry relative="1" as="geometry">
            <mxPoint x="308" y="788" as="targetPoint" />
            <mxPoint x="140" y="224" as="sourcePoint" />
            <Array as="points">
              <mxPoint x="141" y="570" />
            </Array>
          </mxGeometry>
        </mxCell>
        <mxCell id="c7yCDP0rrZjZH6Pq2Brk-87" style="rounded=0;orthogonalLoop=1;jettySize=auto;html=1;strokeColor=#7C8A9A;endArrow=oval;endFill=1;startArrow=oval;startFill=1;strokeWidth=2;labelBackgroundColor=none;fontFamily=VK Sans Display;fontColor=#212121;" edge="1" parent="1">
          <mxGeometry relative="1" as="geometry">
            <mxPoint x="668" y="546" as="sourcePoint" />
            <mxPoint x="668" y="334" as="targetPoint" />
          </mxGeometry>
        </mxCell>
        <mxCell id="c7yCDP0rrZjZH6Pq2Brk-88" style="rounded=0;orthogonalLoop=1;jettySize=auto;html=1;strokeColor=#7C8A9A;endArrow=oval;endFill=1;startArrow=oval;startFill=1;strokeWidth=2;labelBackgroundColor=none;fontFamily=VK Sans Display;fontColor=#212121;" edge="1" parent="1">
          <mxGeometry relative="1" as="geometry">
            <mxPoint x="380" y="246" as="sourcePoint" />
            <mxPoint x="380" y="214" as="targetPoint" />
          </mxGeometry>
        </mxCell>
        <mxCell id="c7yCDP0rrZjZH6Pq2Brk-89" style="rounded=0;orthogonalLoop=1;jettySize=auto;html=1;strokeColor=#7C8A9A;endArrow=oval;endFill=1;startArrow=oval;startFill=1;strokeWidth=2;labelBackgroundColor=none;fontFamily=VK Sans Display;fontColor=#212121;" edge="1" parent="1">
          <mxGeometry relative="1" as="geometry">
            <mxPoint x="474" y="246" as="sourcePoint" />
            <mxPoint x="474" y="214" as="targetPoint" />
          </mxGeometry>
        </mxCell>
        <mxCell id="c7yCDP0rrZjZH6Pq2Brk-90" style="rounded=0;orthogonalLoop=1;jettySize=auto;html=1;strokeColor=#7C8A9A;endArrow=oval;endFill=1;startArrow=oval;startFill=1;strokeWidth=2;labelBackgroundColor=none;fontFamily=VK Sans Display;fontColor=#212121;" edge="1" parent="1">
          <mxGeometry relative="1" as="geometry">
            <mxPoint x="768" y="486" as="sourcePoint" />
            <mxPoint x="768" y="334" as="targetPoint" />
          </mxGeometry>
        </mxCell>
        <mxCell id="c7yCDP0rrZjZH6Pq2Brk-91" style="rounded=0;orthogonalLoop=1;jettySize=auto;html=1;strokeColor=#7C8A9A;endArrow=oval;endFill=1;startArrow=oval;startFill=1;strokeWidth=2;labelBackgroundColor=none;entryX=0.664;entryY=1.007;entryDx=0;entryDy=0;entryPerimeter=0;fontFamily=VK Sans Display;fontColor=#212121;" edge="1" parent="1">
          <mxGeometry relative="1" as="geometry">
            <mxPoint x="738" y="546" as="sourcePoint" />
            <mxPoint x="738" y="334" as="targetPoint" />
          </mxGeometry>
        </mxCell>
        <mxCell id="c7yCDP0rrZjZH6Pq2Brk-92" style="rounded=0;orthogonalLoop=1;jettySize=auto;html=1;strokeColor=#7C8A9A;endArrow=oval;endFill=1;startArrow=oval;startFill=1;strokeWidth=2;labelBackgroundColor=none;fontFamily=VK Sans Display;fontColor=#212121;" edge="1" parent="1">
          <mxGeometry relative="1" as="geometry">
            <mxPoint x="1088" y="246" as="sourcePoint" />
            <mxPoint x="1088" y="214" as="targetPoint" />
          </mxGeometry>
        </mxCell>
        <mxCell id="c7yCDP0rrZjZH6Pq2Brk-93" style="rounded=0;orthogonalLoop=1;jettySize=auto;html=1;strokeColor=#7C8A9A;endArrow=oval;endFill=1;startArrow=oval;startFill=1;strokeWidth=2;labelBackgroundColor=none;fontFamily=VK Sans Display;fontColor=#212121;" edge="1" parent="1">
          <mxGeometry relative="1" as="geometry">
            <mxPoint x="1194" y="246" as="sourcePoint" />
            <mxPoint x="1194" y="214" as="targetPoint" />
          </mxGeometry>
        </mxCell>
        <mxCell id="c7yCDP0rrZjZH6Pq2Brk-94" value="&lt;font&gt;&lt;span style=&quot;font-size: 18px;&quot;&gt;High-IOPS&lt;/span&gt;&lt;/font&gt;" style="rounded=1;whiteSpace=wrap;html=1;arcSize=3;strokeColor=none;fillColor=#F6F7F9;labelBackgroundColor=none;fontFamily=VK Sans Display;fontColor=#212121;" vertex="1" parent="1">
          <mxGeometry x="1290" y="250" width="108" height="80" as="geometry" />
        </mxCell>
        <mxCell id="c7yCDP0rrZjZH6Pq2Brk-95" style="rounded=0;orthogonalLoop=1;jettySize=auto;html=1;strokeColor=#7C8A9A;endArrow=oval;endFill=1;startArrow=oval;startFill=1;strokeWidth=2;labelBackgroundColor=none;fontFamily=VK Sans Display;fontColor=#212121;" edge="1" parent="1">
          <mxGeometry relative="1" as="geometry">
            <mxPoint x="1318" y="246" as="sourcePoint" />
            <mxPoint x="1318" y="214" as="targetPoint" />
          </mxGeometry>
        </mxCell>
        <mxCell id="c7yCDP0rrZjZH6Pq2Brk-96" style="rounded=0;orthogonalLoop=1;jettySize=auto;html=1;strokeColor=#7C8A9A;endArrow=oval;endFill=1;startArrow=oval;startFill=1;strokeWidth=2;labelBackgroundColor=none;fontFamily=VK Sans Display;fontColor=#212121;" edge="1" parent="1">
          <mxGeometry relative="1" as="geometry">
            <mxPoint x="1358" y="246" as="sourcePoint" />
            <mxPoint x="1358" y="154" as="targetPoint" />
          </mxGeometry>
        </mxCell>
        <mxCell id="c7yCDP0rrZjZH6Pq2Brk-97" value="&lt;font style=&quot;font-size: 18px;&quot;&gt;Management (VLAN/Subnet)&lt;/font&gt;" style="rounded=1;whiteSpace=wrap;html=1;strokeColor=none;fillColor=#F6F7F9;labelBackgroundColor=none;fontFamily=VK Sans Display;fontColor=#212121;" vertex="1" parent="1">
          <mxGeometry x="338" y="170" width="1060" height="40" as="geometry" />
        </mxCell>
        <mxCell id="c7yCDP0rrZjZH6Pq2Brk-98" value="&lt;font&gt;&lt;span style=&quot;font-size: 18px;&quot;&gt;Узлы прикладных сервисов&lt;/span&gt;&lt;/font&gt;" style="rounded=1;whiteSpace=wrap;html=1;arcSize=3;strokeColor=none;fillColor=#F6F7F9;labelBackgroundColor=none;fontFamily=VK Sans Display;fontColor=#212121;" vertex="1" parent="1">
          <mxGeometry x="863" y="250" width="140" height="80" as="geometry" />
        </mxCell>
        <mxCell id="c7yCDP0rrZjZH6Pq2Brk-99" style="rounded=0;orthogonalLoop=1;jettySize=auto;html=1;strokeColor=#7C8A9A;endArrow=oval;endFill=1;startArrow=oval;startFill=1;strokeWidth=2;labelBackgroundColor=none;fontFamily=VK Sans Display;fontColor=#212121;" edge="1" parent="1">
          <mxGeometry relative="1" as="geometry">
            <mxPoint x="933" y="246" as="sourcePoint" />
            <mxPoint x="933" y="214" as="targetPoint" />
          </mxGeometry>
        </mxCell>
        <mxCell id="c7yCDP0rrZjZH6Pq2Brk-100" value="" style="shape=image;verticalLabelPosition=bottom;labelBackgroundColor=default;verticalAlign=top;aspect=fixed;imageAspect=0;image=data:image/svg+xml,PHN2ZyB4bWxucz0iaHR0cDovL3d3dy53My5vcmcvMjAwMC9zdmciIGZpbGw9Im5vbmUiIHZpZXdCb3g9IjAgMCAzMiAzMiIgaGVpZ2h0PSIzMiIgd2lkdGg9IjMyIj4mI3hhOzxwYXRoIGZpbGw9IiMwMDc3RkYiIGQ9Ik0zLjMxNDI4IDE2QzMuMzE0MjggOC45OTM4NyA4Ljk5Mzg3IDMuMzE0MjggMTYgMy4zMTQyOEMyMy4wMDYxIDMuMzE0MjggMjguNjg1NyA4Ljk5Mzg3IDI4LjY4NTcgMTZDMjguNjg1NyAyMy4wMDYxIDIzLjAwNjEgMjguNjg1NyAxNiAyOC42ODU3QzguOTkzODcgMjguNjg1NyAzLjMxNDI4IDIzLjAwNjEgMy4zMTQyOCAxNlpNMTYgMS4yNTcxNEM3Ljg1Nzc0IDEuMjU3MTQgMS4yNTcxNCA3Ljg1Nzc0IDEuMjU3MTQgMTZDMS4yNTcxNCAyNC4xNDIzIDcuODU3NzQgMzAuNzQyOSAxNiAzMC43NDI5QzI0LjE0MjMgMzAuNzQyOSAzMC43NDI5IDI0LjE0MjMgMzAuNzQyOSAxNkMzMC43NDI5IDcuODU3NzQgMjQuMTQyMyAxLjI1NzE0IDE2IDEuMjU3MTRaTTE5LjUxNzMgNy4zMjYyNUMxOS44NzQzIDcuNjYxMSAxOS44ODgxIDguMjE3NTYgMTkuNTQ4MSA4LjU2OTE1QzE5LjIwOCA4LjkyMDczIDE4LjY0MjggOC45MzQzMSAxOC4yODU3IDguNTk5NDZMMTYuODkyOSA3LjUwMTgzVjE4LjkzMDRMMTYuODkyOCAxOC45MzlWMjQuNDk4MkwxOC4yODU3IDIzLjQwMDVDMTguNjQyOCAyMy4wNjU3IDE5LjIwOCAyMy4wNzkzIDE5LjU0OCAyMy40MzA5QzE5Ljg4ODEgMjMuNzgyNCAxOS44NzQzIDI0LjMzODkgMTkuNTE3MyAyNC42NzM3TDE2LjYxNTggMjcuMTg2MUMxNi4yNzA5IDI3LjUwOTQgMTUuNzI5MSAyNy41MDk0IDE1LjM4NDIgMjcuMTg2MUwxMi40ODI4IDI0LjY3MzdDMTIuMTI1NyAyNC4zMzg5IDEyLjExMTkgMjMuNzgyNCAxMi40NTIgMjMuNDMwOUMxMi43OTIgMjMuMDc5MyAxMy4zNTcyIDIzLjA2NTcgMTMuNzE0MyAyMy40MDA1TDE1LjEwNzEgMjQuNDk4MkwxNS4xMDcxIDEzLjA2OTZMMTUuMTA3MiAxMy4wNjA5VjcuNTAxODNMMTMuNzE0MyA4LjU5OTQ2QzEzLjM1NzIgOC45MzQzMSAxMi43OTIgOC45MjA3MyAxMi40NTIgOC41NjkxNUMxMi4xMTE5IDguMjE3NTYgMTIuMTI1NyA3LjY2MTEgMTIuNDgyOCA3LjMyNjI1TDE1LjM4NDMgNC44MTM5NUMxNS43MjkxIDQuNDkwNTkgMTYuMjcxIDQuNDkwNTkgMTYuNjE1OCA0LjgxMzk1TDE5LjUxNzMgNy4zMjYyNVpNMTAuMDk3NSAxOS45MTM4QzEwLjQ0OTEgMjAuMjUzOSAxMS4wMDU2IDIwLjI0MDEgMTEuMzQwNCAxOS44ODNMMTMuODUyNyAxNi45ODE2QzE0LjE3NjEgMTYuNjM2NyAxNC4xNzYxIDE2LjA5NDkgMTMuODUyNyAxNS43NUwxMS4zNDA0IDEyLjg0ODVDMTEuMDA1NiAxMi40OTE0IDEwLjQ0OTEgMTIuNDc3NyAxMC4wOTc1IDEyLjgxNzdDOS43NDU5NCAxMy4xNTc4IDkuNzMyMzYgMTMuNzIzIDEwLjA2NzIgMTQuMDgwMUwxMS4xNjQ4IDE1LjQ3MjlINS40NTA1NEM0Ljk2NTAyIDE1LjQ3MjkgNC41NzE0MiAxNS44NzI3IDQuNTcxNDIgMTYuMzY1OEM0LjU3MTQyIDE2Ljg1ODkgNC45NjUwMSAxNy4yNTg3IDUuNDUwNTQgMTcuMjU4N0wxMS4xNjQ4IDE3LjI1ODdMMTAuMDY3MiAxOC42NTE1QzkuNzMyMzYgMTkuMDA4NiA5Ljc0NTk0IDE5LjU3MzcgMTAuMDk3NSAxOS45MTM4Wk0yMC42NjM0IDEyLjg0ODVDMjAuOTk4MiAxMi40OTE0IDIxLjU1NDcgMTIuNDc3NyAyMS45MDYzIDEyLjgxNzdDMjIuMjU3OSAxMy4xNTc4IDIyLjI3MTUgMTMuNzIzIDIxLjkzNjYgMTQuMDhMMjAuODM5IDE1LjQ3MjlIMjYuNTUzM0MyNy4wMzg4IDE1LjQ3MjkgMjcuNDMyNCAxNS44NzI2IDI3LjQzMjQgMTYuMzY1OEMyNy40MzI0IDE2Ljg1ODkgMjcuMDM4OCAxNy4yNTg2IDI2LjU1MzMgMTcuMjU4NkgyMC44MzlMMjEuOTM2NiAxOC42NTE1QzIyLjI3MTUgMTkuMDA4NiAyMi4yNTc5IDE5LjU3MzcgMjEuOTA2MyAxOS45MTM4QzIxLjU1NDcgMjAuMjUzOSAyMC45OTgyIDIwLjI0MDEgMjAuNjYzNCAxOS44ODNMMTguMTUxMSAxNi45ODE1QzE3LjgyNzcgMTYuNjM2NyAxNy44Mjc3IDE2LjA5NDggMTguMTUxMSAxNS43NUwyMC42NjM0IDEyLjg0ODVaIiBjbGlwLXJ1bGU9ImV2ZW5vZGQiIGZpbGwtcnVsZT0iZXZlbm9kZCIvPiYjeGE7PC9zdmc+;fontFamily=VK Sans Display;fontColor=#212121;" vertex="1" parent="1">
          <mxGeometry x="115.5" y="169.99999999999997" width="50" height="50" as="geometry" />
        </mxCell>
      </root>
    </mxGraphModel>
  </diagram>
  <diagram id="za1KIF0gx2VYvrOIwXqd" name="withnet">
    <mxGraphModel dx="1434" dy="870" grid="1" gridSize="10" guides="1" tooltips="1" connect="1" arrows="1" fold="1" page="1" pageScale="1" pageWidth="827" pageHeight="1169" math="0" shadow="0">
      <root>
        <mxCell id="0" />
        <mxCell id="1" parent="0" />
        <mxCell id="QGTV7tFyquk40JRuXOC1-1" value="" style="rounded=1;whiteSpace=wrap;html=1;fontFamily=VK Sans Display;strokeColor=none;arcsize=12;fillColor=#FFFFFF;spacing=0;spacingTop=12;spacingBottom=12;arcSize=12;absoluteArcSize=1;fontSize=14;fontColor=#212121;" vertex="1" parent="1">
          <mxGeometry x="40" y="43" width="1390" height="560" as="geometry" />
        </mxCell>
        <mxCell id="QGTV7tFyquk40JRuXOC1-2" value="Пользователь" style="shape=image;verticalLabelPosition=bottom;labelBackgroundColor=default;verticalAlign=top;aspect=fixed;imageAspect=0;image=data:image/svg+xml,PHN2ZyB4bWxucz0iaHR0cDovL3d3dy53My5vcmcvMjAwMC9zdmciIGZpbGw9Im5vbmUiIHZpZXdCb3g9IjAgMCAxOSAyMSIgaGVpZ2h0PSIyMSIgd2lkdGg9IjE5Ij4mI3hhOzxwYXRoIGZpbGw9IiMwMDc3RkYiIGQ9Ik0xMi41IDUuNUMxMi41IDMuNTY2MDMgMTAuOTM0IDIgOSAyQzcuMDY2MDMgMiA1LjUgMy41NjYwMyA1LjUgNS41QzUuNSA3LjQzMzk3IDcuMDY2MDMgOSA5IDlDMTAuOTM0IDkgMTIuNSA3LjQzMzk3IDEyLjUgNS41Wk0xNC41IDUuNUMxNC41IDguNTM4NTMgMTIuMDM4NSAxMSA5IDExQzUuOTYxNDcgMTEgMy41IDguNTM4NTMgMy41IDUuNUMzLjUgMi40NjE0NyA1Ljk2MTQ3IDAgOSAwQzEyLjAzODUgMCAxNC41IDIuNDYxNDcgMTQuNSA1LjVaTTIgMTcuNjQyOUMyIDE4LjU4NjIgMS45MTk4NyAxOC41IDIuNDU1ODggMTguNUgxNi4wNDQxQzE2LjU4MDEgMTguNSAxNi41IDE4LjU4NjIgMTYuNSAxNy42NDI5QzE2LjUgMTUuMzU0NyAxMy4xOTYgMTQgOS4yNSAxNEM1LjMwNDAyIDE0IDIgMTUuMzU0NyAyIDE3LjY0MjlaTTAgMTcuNjQyOUMwIDEzLjc2MjYgNC4yOTg5MiAxMiA5LjI1IDEyQzE0LjIwMTEgMTIgMTguNSAxMy43NjI2IDE4LjUgMTcuNjQyOUMxOC41IDE5LjY1OTMgMTcuNzE4OSAyMC41IDE2LjA0NDEgMjAuNUgyLjQ1NTg4QzAuNzgxMTA5IDIwLjUgMCAxOS42NTkzIDAgMTcuNjQyOVoiLz4mI3hhOzwvc3ZnPg==;fontFamily=VK Sans Display;fontSize=14;fontColor=#212121;" vertex="1" parent="1">
          <mxGeometry x="81" y="295.5000000000001" width="38.9" height="43" as="geometry" />
        </mxCell>
        <mxCell id="QGTV7tFyquk40JRuXOC1-3" value="Администратор" style="shape=image;verticalLabelPosition=bottom;labelBackgroundColor=default;verticalAlign=top;aspect=fixed;imageAspect=0;image=data:image/svg+xml,PHN2ZyB4bWxucz0iaHR0cDovL3d3dy53My5vcmcvMjAwMC9zdmciIGZpbGw9Im5vbmUiIHZpZXdCb3g9IjAgMCAxOSAyMSIgaGVpZ2h0PSIyMSIgd2lkdGg9IjE5Ij4mI3hhOzxwYXRoIGZpbGw9IiMwMDc3RkYiIGQ9Ik0xMi41IDUuNUMxMi41IDMuNTY2MDMgMTAuOTM0IDIgOSAyQzcuMDY2MDMgMiA1LjUgMy41NjYwMyA1LjUgNS41QzUuNSA3LjQzMzk3IDcuMDY2MDMgOSA5IDlDMTAuOTM0IDkgMTIuNSA3LjQzMzk3IDEyLjUgNS41Wk0xNC41IDUuNUMxNC41IDguNTM4NTMgMTIuMDM4NSAxMSA5IDExQzUuOTYxNDcgMTEgMy41IDguNTM4NTMgMy41IDUuNUMzLjUgMi40NjE0NyA1Ljk2MTQ3IDAgOSAwQzEyLjAzODUgMCAxNC41IDIuNDYxNDcgMTQuNSA1LjVaTTIgMTcuNjQyOUMyIDE4LjU4NjIgMS45MTk4NyAxOC41IDIuNDU1ODggMTguNUgxNi4wNDQxQzE2LjU4MDEgMTguNSAxNi41IDE4LjU4NjIgMTYuNSAxNy42NDI5QzE2LjUgMTUuMzU0NyAxMy4xOTYgMTQgOS4yNSAxNEM1LjMwNDAyIDE0IDIgMTUuMzU0NyAyIDE3LjY0MjlaTTAgMTcuNjQyOUMwIDEzLjc2MjYgNC4yOTg5MiAxMiA5LjI1IDEyQzE0LjIwMTEgMTIgMTguNSAxMy43NjI2IDE4LjUgMTcuNjQyOUMxOC41IDE5LjY1OTMgMTcuNzE4OSAyMC41IDE2LjA0NDEgMjAuNUgyLjQ1NTg4QzAuNzgxMTA5IDIwLjUgMCAxOS42NTkzIDAgMTcuNjQyOVoiLz4mI3hhOzwvc3ZnPg==;fontFamily=VK Sans Display;fontSize=14;fontColor=#212121;" vertex="1" parent="1">
          <mxGeometry x="81" y="53.5" width="38.9" height="43" as="geometry" />
        </mxCell>
        <mxCell id="QGTV7tFyquk40JRuXOC1-4" value="Корпоративная сеть &#xa;передачи данных" style="shape=image;verticalLabelPosition=bottom;labelBackgroundColor=default;verticalAlign=top;aspect=fixed;imageAspect=0;image=data:image/svg+xml,PHN2ZyB4bWxucz0iaHR0cDovL3d3dy53My5vcmcvMjAwMC9zdmciIGZpbGw9Im5vbmUiIHZpZXdCb3g9IjAgMCAyNCAyNCIgaGVpZ2h0PSIyNCIgd2lkdGg9IjI0Ij4mI3hhOzxwYXRoIGZpbGw9IiMwMDc3RkYiIGQ9Ik0yMy4wODMzIDUuMDcyOTFDMjMuMDgzMyA3LjM2ODM0IDIxLjIyMjUgOS4yMjkxNiAxOC45MjcxIDkuMjI5MTZDMTguMzcwOSA5LjIyOTE2IDE3Ljg0MDIgOS4xMTk5MSAxNy4zNTU0IDguOTIxNzFDMTcuMDUxNyA4Ljc5NzU2IDE2LjY5MzQgOC44NDkwOCAxNi40NzQ3IDkuMDkzNjVMMTQuMjgzMSAxMS41NDQ2QzE0LjA0OCAxMS44MDc1IDE0LjA0OCAxMi4yMDUgMTQuMjgzMSAxMi40NjhMMTYuNDY2IDE0LjkwOThDMTYuNjg1IDE1LjE1NDkgMTcuMDQ0MSAxNS4yMDYyIDE3LjM0ODIgMTUuMDgxMkMxNy44MzUgMTQuODgxMiAxOC4zNjgxIDE0Ljc3MDggMTguOTI3MSAxNC43NzA4QzIxLjIyMjUgMTQuNzcwOCAyMy4wODMzIDE2LjYzMTYgMjMuMDgzMyAxOC45MjcxQzIzLjA4MzMgMjEuMjIyNSAyMS4yMjI1IDIzLjA4MzMgMTguOTI3MSAyMy4wODMzQzE2LjYzMTYgMjMuMDgzMyAxNC43NzA4IDIxLjIyMjUgMTQuNzcwOCAxOC45MjcxQzE0Ljc3MDggMTguMzI3NiAxNC44OTc4IDE3Ljc1NzcgMTUuMTI2MiAxNy4yNDI5QzE1LjI0OTUgMTYuOTY1IDE1LjIyMzUgMTYuNjM1IDE1LjAyMDYgMTYuNDA4NkwxMi4yMDY1IDEzLjI2OTRDMTIuMDc1MSAxMy4xMjI4IDExLjg4NzUgMTMuMDM5MSAxMS42OTA3IDEzLjAzOTFIOS42MzUyMUM5LjMxOTE0IDEzLjAzOTEgOS4wNDg3NyAxMy4yNTU3IDguOTMwOTEgMTMuNTQ5QzguMzE2NzMgMTUuMDc3MyA2LjgyMDgzIDE2LjE1NjIgNS4wNzI5MSAxNi4xNTYyQzIuNzc3NDcgMTYuMTU2MiAwLjkxNjY1NiAxNC4yOTU0IDAuOTE2NjU2IDEyQzAuOTE2NjU2IDkuNzA0NTYgMi43Nzc0NyA3Ljg0Mzc0IDUuMDcyOTEgNy44NDM3NEM2LjgyMDgzIDcuODQzNzQgOC4zMTY3NCA4LjkyMjczIDguOTMwOTEgMTAuNDUxQzkuMDQ4NzcgMTAuNzQ0MyA5LjMxOTE0IDEwLjk2MDkgOS42MzUyMSAxMC45NjA5SDExLjY5MTRDMTEuODg3OCAxMC45NjA5IDEyLjA3NSAxMC44Nzc1IDEyLjIwNjQgMTAuNzMxNUwxNS4wMjMyIDcuNjAwMTVDMTUuMjI3MiA3LjM3MzM5IDE1LjI1MzMgNy4wNDIwOSAxNS4xMjkxIDYuNzYzNTFDMTQuODk4OCA2LjI0NzAyIDE0Ljc3MDggNS42NzQ5MSAxNC43NzA4IDUuMDcyOTFDMTQuNzcwOCAyLjc3NzQ3IDE2LjYzMTYgMC45MTY2NTYgMTguOTI3MSAwLjkxNjY1NkMyMS4yMjI1IDAuOTE2NjU2IDIzLjA4MzMgMi43Nzc0NyAyMy4wODMzIDUuMDcyOTFaTTIxLjAwNTIgNS4wNzI5MUMyMS4wMDUyIDYuMjIwNjIgMjAuMDc0OCA3LjE1MTAzIDE4LjkyNzEgNy4xNTEwM0MxNy43Nzk0IDcuMTUxMDMgMTYuODQ4OSA2LjIyMDYyIDE2Ljg0ODkgNS4wNzI5MUMxNi44NDg5IDMuOTI1MTkgMTcuNzc5NCAyLjk5NDc4IDE4LjkyNzEgMi45OTQ3OEMyMC4wNzQ4IDIuOTk0NzggMjEuMDA1MiAzLjkyNTE5IDIxLjAwNTIgNS4wNzI5MVpNNy4xNTEwMyAxMkM3LjE1MTAzIDEzLjE0NzcgNi4yMjA2MiAxNC4wNzgxIDUuMDcyOTEgMTQuMDc4MUMzLjkyNTE5IDE0LjA3ODEgMi45OTQ3OCAxMy4xNDc3IDIuOTk0NzggMTJDMi45OTQ3OCAxMC44NTIzIDMuOTI1MTkgOS45MjE4NiA1LjA3MjkxIDkuOTIxODZDNi4yMjA2MiA5LjkyMTg2IDcuMTUxMDMgMTAuODUyMyA3LjE1MTAzIDEyWk0xOC45MjcxIDIxLjAwNTJDMjAuMDc0OCAyMS4wMDUyIDIxLjAwNTIgMjAuMDc0OCAyMS4wMDUyIDE4LjkyNzFDMjEuMDA1MiAxNy43Nzk0IDIwLjA3NDggMTYuODQ4OSAxOC45MjcxIDE2Ljg0ODlDMTcuNzc5NCAxNi44NDg5IDE2Ljg0ODkgMTcuNzc5NCAxNi44NDg5IDE4LjkyNzFDMTYuODQ4OSAyMC4wNzQ4IDE3Ljc3OTQgMjEuMDA1MiAxOC45MjcxIDIxLjAwNTJaIiBjbGlwLXJ1bGU9ImV2ZW5vZGQiIGZpbGwtcnVsZT0iZXZlbm9kZCIvPiYjeGE7PC9zdmc+;fontFamily=VK Sans Display;fontSize=14;fontColor=#212121;" vertex="1" parent="1">
          <mxGeometry x="220" y="60.35000000000002" width="43" height="43" as="geometry" />
        </mxCell>
        <mxCell id="QGTV7tFyquk40JRuXOC1-5" style="rounded=0;orthogonalLoop=1;jettySize=auto;html=1;strokeColor=#7C8A9A;endArrow=oval;endFill=1;startArrow=oval;startFill=1;strokeWidth=2;labelBackgroundColor=none;fontFamily=VK Sans Display;fontColor=#212121;" edge="1" parent="1">
          <mxGeometry relative="1" as="geometry">
            <mxPoint x="806" y="248.35000000000002" as="sourcePoint" />
            <mxPoint x="806" y="156.35000000000002" as="targetPoint" />
          </mxGeometry>
        </mxCell>
        <mxCell id="QGTV7tFyquk40JRuXOC1-6" style="rounded=0;orthogonalLoop=1;jettySize=auto;html=1;strokeColor=#7C8A9A;endArrow=oval;endFill=1;startArrow=oval;startFill=1;strokeWidth=2;labelBackgroundColor=none;fontFamily=VK Sans Display;fontColor=#212121;" edge="1" parent="1">
          <mxGeometry relative="1" as="geometry">
            <mxPoint x="1274" y="248.35000000000002" as="sourcePoint" />
            <mxPoint x="1274" y="156.35000000000002" as="targetPoint" />
          </mxGeometry>
        </mxCell>
        <mxCell id="QGTV7tFyquk40JRuXOC1-7" style="rounded=0;orthogonalLoop=1;jettySize=auto;html=1;strokeColor=#7C8A9A;endArrow=oval;endFill=1;startArrow=oval;startFill=1;strokeWidth=2;labelBackgroundColor=none;fontFamily=VK Sans Display;fontColor=#212121;" edge="1" parent="1">
          <mxGeometry relative="1" as="geometry">
            <mxPoint x="531" y="488.35" as="sourcePoint" />
            <mxPoint x="531" y="336.35" as="targetPoint" />
          </mxGeometry>
        </mxCell>
        <mxCell id="QGTV7tFyquk40JRuXOC1-8" style="rounded=0;orthogonalLoop=1;jettySize=auto;html=1;strokeColor=#7C8A9A;endArrow=oval;endFill=1;startArrow=oval;startFill=1;strokeWidth=2;labelBackgroundColor=none;fontFamily=VK Sans Display;fontColor=#212121;" edge="1" parent="1">
          <mxGeometry relative="1" as="geometry">
            <mxPoint x="531" y="248.35000000000002" as="sourcePoint" />
            <mxPoint x="531" y="156.35000000000002" as="targetPoint" />
          </mxGeometry>
        </mxCell>
        <mxCell id="QGTV7tFyquk40JRuXOC1-9" style="rounded=0;orthogonalLoop=1;jettySize=auto;html=1;strokeColor=#7C8A9A;endArrow=oval;endFill=1;startArrow=oval;startFill=1;strokeWidth=2;labelBackgroundColor=none;fontFamily=VK Sans Display;fontColor=#212121;" edge="1" parent="1">
          <mxGeometry relative="1" as="geometry">
            <mxPoint x="858" y="248.35000000000002" as="sourcePoint" />
            <mxPoint x="858" y="96.35000000000002" as="targetPoint" />
          </mxGeometry>
        </mxCell>
        <mxCell id="QGTV7tFyquk40JRuXOC1-10" style="rounded=0;orthogonalLoop=1;jettySize=auto;html=1;strokeColor=#7C8A9A;endArrow=oval;endFill=1;startArrow=oval;startFill=1;strokeWidth=2;labelBackgroundColor=none;fontFamily=VK Sans Display;fontColor=#212121;" edge="1" parent="1">
          <mxGeometry relative="1" as="geometry">
            <mxPoint x="571" y="248.35000000000002" as="sourcePoint" />
            <mxPoint x="571" y="96.35000000000002" as="targetPoint" />
          </mxGeometry>
        </mxCell>
        <mxCell id="QGTV7tFyquk40JRuXOC1-11" value="&lt;font style=&quot;font-size: 18px;&quot;&gt;K8s Internal Pods (Subnet)&lt;/font&gt;" style="rounded=1;whiteSpace=wrap;html=1;strokeColor=none;fillColor=#F6F7F9;fontColor=#212121;labelBackgroundColor=none;fontFamily=VK Sans Display;" vertex="1" parent="1">
          <mxGeometry x="802" y="492.35" width="242" height="40" as="geometry" />
        </mxCell>
        <mxCell id="QGTV7tFyquk40JRuXOC1-12" value="&lt;font style=&quot;font-size: 18px;&quot;&gt;K8s Internal&amp;nbsp;Services (Subnet)&lt;/font&gt;" style="rounded=1;whiteSpace=wrap;html=1;strokeColor=none;fillColor=#F6F7F9;fontColor=#212121;labelBackgroundColor=none;fontFamily=VK Sans Display;" vertex="1" parent="1">
          <mxGeometry x="772" y="552.35" width="262" height="40" as="geometry" />
        </mxCell>
        <mxCell id="QGTV7tFyquk40JRuXOC1-13" value="&lt;font style=&quot;font-size: 18px;&quot;&gt;Cloud Tunnel (VLAN/Subnet)&lt;/font&gt;" style="rounded=1;whiteSpace=wrap;html=1;strokeColor=none;fillColor=#F6F7F9;labelBackgroundColor=none;fontFamily=VK Sans Display;fontColor=#212121;" vertex="1" parent="1">
          <mxGeometry x="360" y="52.35000000000002" width="1060" height="40" as="geometry" />
        </mxCell>
        <mxCell id="QGTV7tFyquk40JRuXOC1-14" value="&lt;font style=&quot;font-size: 18px;&quot;&gt;Cloud External (VLAN/Subnet)&lt;/font&gt;" style="rounded=1;whiteSpace=wrap;html=1;strokeColor=none;fillColor=#F6F7F9;labelBackgroundColor=none;fontFamily=VK Sans Display;fontColor=#212121;" vertex="1" parent="1">
          <mxGeometry x="360" y="492.35" width="312" height="40" as="geometry" />
        </mxCell>
        <mxCell id="QGTV7tFyquk40JRuXOC1-15" value="&lt;font style=&quot;font-size: 18px;&quot;&gt;Ceph Internal (VLAN/Subnet)&lt;/font&gt;" style="rounded=1;whiteSpace=wrap;html=1;arcSize=12;strokeColor=none;fillColor=#F6F7F9;labelBackgroundColor=none;fontFamily=VK Sans Display;fontColor=#212121;" vertex="1" parent="1">
          <mxGeometry x="1120" y="552.35" width="300" height="40" as="geometry" />
        </mxCell>
        <mxCell id="QGTV7tFyquk40JRuXOC1-16" value="&lt;span style=&quot;font-size: 18px; font-style: normal; font-variant-ligatures: normal; font-variant-caps: normal; font-weight: 400; letter-spacing: normal; orphans: 2; text-align: center; text-indent: 0px; text-transform: none; widows: 2; word-spacing: 0px; -webkit-text-stroke-width: 0px; text-decoration-thickness: initial; text-decoration-style: initial; text-decoration-color: initial; float: none; display: inline !important;&quot;&gt;Вычислительные узлы&lt;/span&gt;" style="rounded=1;whiteSpace=wrap;html=1;arcSize=3;strokeColor=none;fillColor=#F6F7F9;labelBackgroundColor=none;fontFamily=VK Sans Display;fontColor=#212121;" vertex="1" parent="1">
          <mxGeometry x="451" y="252.35000000000002" width="160" height="80" as="geometry" />
        </mxCell>
        <mxCell id="QGTV7tFyquk40JRuXOC1-17" value="&lt;span style=&quot;font-size: 18px; font-style: normal; font-variant-ligatures: normal; font-variant-caps: normal; font-weight: 400; letter-spacing: normal; orphans: 2; text-align: center; text-indent: 0px; text-transform: none; widows: 2; word-spacing: 0px; -webkit-text-stroke-width: 0px; text-decoration-thickness: initial; text-decoration-style: initial; text-decoration-color: initial; float: none; display: inline !important;&quot;&gt;Контроллеры&lt;/span&gt;" style="rounded=1;whiteSpace=wrap;html=1;arcSize=3;strokeColor=none;fillColor=#F6F7F9;labelBackgroundColor=none;fontFamily=VK Sans Display;fontColor=#212121;" vertex="1" parent="1">
          <mxGeometry x="727" y="252.35" width="183" height="80" as="geometry" />
        </mxCell>
        <mxCell id="QGTV7tFyquk40JRuXOC1-18" value="&lt;font style=&quot;font-size: 18px;&quot;&gt;Public API Transport (VLAN/Subnet)&lt;/font&gt;" style="rounded=1;whiteSpace=wrap;html=1;strokeColor=none;fillColor=#F6F7F9;labelBackgroundColor=none;fontFamily=VK Sans Display;fontColor=#212121;" vertex="1" parent="1">
          <mxGeometry x="360" y="552.35" width="400" height="40" as="geometry" />
        </mxCell>
        <mxCell id="QGTV7tFyquk40JRuXOC1-19" value="&lt;font&gt;&lt;span style=&quot;font-size: 18px;&quot;&gt;Public API Loopbacks&lt;/span&gt;&lt;/font&gt;" style="rounded=1;whiteSpace=wrap;html=1;strokeColor=none;fillColor=#F6F7F9;fontColor=#212121;labelBackgroundColor=none;fontFamily=VK Sans Display;" vertex="1" parent="1">
          <mxGeometry x="858" y="372.35" width="220" height="40" as="geometry" />
        </mxCell>
        <mxCell id="QGTV7tFyquk40JRuXOC1-20" value="&lt;font&gt;&lt;span style=&quot;font-size: 18px;&quot;&gt;Private API Loopbacks&lt;/span&gt;&lt;/font&gt;" style="rounded=1;whiteSpace=wrap;html=1;strokeColor=none;fillColor=#F6F7F9;fontColor=#212121;labelBackgroundColor=none;fontFamily=VK Sans Display;" vertex="1" parent="1">
          <mxGeometry x="832" y="432.35" width="220" height="40" as="geometry" />
        </mxCell>
        <mxCell id="QGTV7tFyquk40JRuXOC1-21" value="&lt;span style=&quot;font-size: 18px; font-style: normal; font-variant-ligatures: normal; font-variant-caps: normal; font-weight: 400; letter-spacing: normal; orphans: 2; text-align: center; text-indent: 0px; text-transform: none; widows: 2; word-spacing: 0px; -webkit-text-stroke-width: 0px; text-decoration-thickness: initial; text-decoration-style: initial; text-decoration-color: initial; float: none; display: inline !important;&quot;&gt;Deploy&lt;/span&gt;" style="rounded=1;whiteSpace=wrap;html=1;arcSize=3;strokeColor=none;labelBackgroundColor=none;fillColor=#F6F7F9;fontFamily=VK Sans Display;fontColor=#212121;" vertex="1" parent="1">
          <mxGeometry x="360" y="252.35" width="80" height="80" as="geometry" />
        </mxCell>
        <mxCell id="QGTV7tFyquk40JRuXOC1-22" value="&lt;font&gt;&lt;span style=&quot;font-size: 18px;&quot;&gt;Мониторинг и логирование&lt;/span&gt;&lt;/font&gt;" style="rounded=1;whiteSpace=wrap;html=1;arcSize=3;strokeColor=none;fillColor=#F6F7F9;labelBackgroundColor=none;fontFamily=VK Sans Display;fontColor=#212121;" vertex="1" parent="1">
          <mxGeometry x="1075" y="252.35000000000002" width="140" height="80" as="geometry" />
        </mxCell>
        <mxCell id="QGTV7tFyquk40JRuXOC1-23" value="&lt;font&gt;&lt;span style=&quot;font-size: 18px;&quot;&gt;Ceph&lt;/span&gt;&lt;/font&gt;" style="rounded=1;whiteSpace=wrap;html=1;arcSize=3;strokeColor=none;fillColor=#F6F7F9;labelBackgroundColor=none;fontFamily=VK Sans Display;fontColor=#212121;" vertex="1" parent="1">
          <mxGeometry x="1230" y="252.35" width="68" height="80" as="geometry" />
        </mxCell>
        <mxCell id="QGTV7tFyquk40JRuXOC1-24" style="rounded=0;orthogonalLoop=1;jettySize=auto;html=1;strokeColor=#7C8A9A;endArrow=oval;endFill=1;startArrow=oval;startFill=1;strokeWidth=2;labelBackgroundColor=none;fontFamily=VK Sans Display;fontColor=#212121;" edge="1" parent="1">
          <mxGeometry relative="1" as="geometry">
            <mxPoint x="852" y="428.35" as="sourcePoint" />
            <mxPoint x="852" y="336.35" as="targetPoint" />
          </mxGeometry>
        </mxCell>
        <mxCell id="QGTV7tFyquk40JRuXOC1-25" style="rounded=0;orthogonalLoop=1;jettySize=auto;html=1;strokeColor=#7C8A9A;endArrow=oval;endFill=1;startArrow=oval;startFill=1;strokeWidth=2;labelBackgroundColor=none;fontFamily=VK Sans Display;fontColor=#212121;" edge="1" parent="1">
          <mxGeometry relative="1" as="geometry">
            <mxPoint x="882" y="368.35" as="sourcePoint" />
            <mxPoint x="882" y="336.35" as="targetPoint" />
          </mxGeometry>
        </mxCell>
        <mxCell id="QGTV7tFyquk40JRuXOC1-26" style="rounded=0;orthogonalLoop=1;jettySize=auto;html=1;strokeColor=#7C8A9A;endArrow=oval;endFill=1;startArrow=oval;startFill=1;strokeWidth=2;labelBackgroundColor=none;fontFamily=VK Sans Display;fontColor=#212121;" edge="1" parent="1">
          <mxGeometry relative="1" as="geometry">
            <mxPoint x="1263" y="548.35" as="sourcePoint" />
            <mxPoint x="1263" y="336.35" as="targetPoint" />
          </mxGeometry>
        </mxCell>
        <mxCell id="QGTV7tFyquk40JRuXOC1-27" style="rounded=0;orthogonalLoop=1;jettySize=auto;html=1;strokeColor=#7C8A9A;endArrow=oval;endFill=1;startArrow=oval;startFill=1;strokeWidth=2;entryX=0.288;entryY=-0.08;entryDx=0;entryDy=0;entryPerimeter=0;labelBackgroundColor=none;fontFamily=VK Sans Display;fontColor=#212121;" edge="1" parent="1">
          <mxGeometry relative="1" as="geometry">
            <mxPoint x="647" y="488.35" as="sourcePoint" />
            <mxPoint x="647" y="336.35" as="targetPoint" />
          </mxGeometry>
        </mxCell>
        <mxCell id="QGTV7tFyquk40JRuXOC1-28" style="rounded=0;orthogonalLoop=1;jettySize=auto;html=1;strokeColor=#7C8A9A;endArrow=oval;endFill=1;startArrow=oval;startFill=1;strokeWidth=2;labelBackgroundColor=none;fontFamily=VK Sans Display;fontColor=#212121;" edge="1" parent="1">
          <mxGeometry relative="1" as="geometry">
            <mxPoint x="761" y="248.35000000000002" as="sourcePoint" />
            <mxPoint x="761" y="216.35000000000002" as="targetPoint" />
          </mxGeometry>
        </mxCell>
        <mxCell id="QGTV7tFyquk40JRuXOC1-29" style="edgeStyle=orthogonalEdgeStyle;rounded=1;orthogonalLoop=1;jettySize=auto;html=1;exitX=0.5;exitY=0;exitDx=0;exitDy=0;strokeWidth=2;strokeColor=#7C8A9A;labelBackgroundColor=none;entryX=0;entryY=0.75;entryDx=0;entryDy=0;endArrow=open;endFill=0;fontFamily=VK Sans Display;fontColor=#212121;" edge="1" parent="1">
          <mxGeometry relative="1" as="geometry">
            <mxPoint x="135" y="206.10000000000002" as="targetPoint" />
            <mxPoint x="100" y="292.15" as="sourcePoint" />
            <Array as="points">
              <mxPoint x="100" y="206.35000000000002" />
            </Array>
          </mxGeometry>
        </mxCell>
        <mxCell id="QGTV7tFyquk40JRuXOC1-30" style="edgeStyle=orthogonalEdgeStyle;rounded=1;orthogonalLoop=1;jettySize=auto;html=1;strokeColor=#7C8A9A;strokeWidth=2;labelBackgroundColor=none;entryX=0;entryY=0.25;entryDx=0;entryDy=0;endArrow=open;endFill=0;fontFamily=VK Sans Display;fontColor=#212121;" edge="1" parent="1">
          <mxGeometry relative="1" as="geometry">
            <mxPoint x="100" y="123" as="sourcePoint" />
            <Array as="points">
              <mxPoint x="100" y="187.35000000000002" />
            </Array>
            <mxPoint x="135" y="187.60000000000002" as="targetPoint" />
          </mxGeometry>
        </mxCell>
        <mxCell id="QGTV7tFyquk40JRuXOC1-31" style="edgeStyle=orthogonalEdgeStyle;rounded=1;orthogonalLoop=1;jettySize=auto;html=1;strokeWidth=2;strokeColor=#7C8A9A;labelBackgroundColor=none;endArrow=open;endFill=0;exitX=0.5;exitY=0;exitDx=0;exitDy=0;entryX=0;entryY=0.5;entryDx=0;entryDy=0;fontFamily=VK Sans Display;fontColor=#212121;" edge="1" parent="1" target="QGTV7tFyquk40JRuXOC1-4">
          <mxGeometry relative="1" as="geometry">
            <mxPoint x="162.5" y="164.85000000000002" as="sourcePoint" />
            <mxPoint x="200.47059550104677" y="82.35000000000025" as="targetPoint" />
            <Array as="points">
              <mxPoint x="163" y="82.35000000000002" />
            </Array>
          </mxGeometry>
        </mxCell>
        <mxCell id="QGTV7tFyquk40JRuXOC1-32" style="edgeStyle=orthogonalEdgeStyle;rounded=1;orthogonalLoop=1;jettySize=auto;html=1;entryX=0;entryY=0.5;entryDx=0;entryDy=0;strokeColor=#7C8A9A;strokeWidth=2;exitX=1;exitY=0.5;exitDx=0;exitDy=0;endArrow=open;endFill=0;fontFamily=VK Sans Display;fontColor=#212121;" edge="1" parent="1" target="QGTV7tFyquk40JRuXOC1-49">
          <mxGeometry relative="1" as="geometry">
            <mxPoint x="190" y="192.35000000000002" as="sourcePoint" />
          </mxGeometry>
        </mxCell>
        <mxCell id="QGTV7tFyquk40JRuXOC1-33" value="BGP Peering" style="edgeLabel;html=1;align=center;verticalAlign=middle;resizable=0;points=[];fontFamily=VK Sans Display;fontSize=12;labelBackgroundColor=default;textOpacity=70;fontColor=#212121;" vertex="1" connectable="0" parent="QGTV7tFyquk40JRuXOC1-32">
          <mxGeometry x="0.0268" y="-1" relative="1" as="geometry">
            <mxPoint as="offset" />
          </mxGeometry>
        </mxCell>
        <mxCell id="QGTV7tFyquk40JRuXOC1-34" style="edgeStyle=orthogonalEdgeStyle;rounded=1;orthogonalLoop=1;jettySize=auto;html=1;exitX=1;exitY=0.75;exitDx=0;exitDy=0;entryX=0;entryY=0.5;entryDx=0;entryDy=0;strokeColor=#7C8A9A;strokeWidth=2;endArrow=open;endFill=0;fontFamily=VK Sans Display;fontColor=#212121;" edge="1" parent="1" target="QGTV7tFyquk40JRuXOC1-14">
          <mxGeometry relative="1" as="geometry">
            <mxPoint x="287.7142682756696" y="458.49285714285713" as="targetPoint" />
            <mxPoint x="190" y="206.10000000000002" as="sourcePoint" />
          </mxGeometry>
        </mxCell>
        <mxCell id="QGTV7tFyquk40JRuXOC1-35" style="edgeStyle=orthogonalEdgeStyle;rounded=1;orthogonalLoop=1;jettySize=auto;html=1;entryX=0;entryY=0.5;entryDx=0;entryDy=0;strokeColor=#7C8A9A;strokeWidth=2;endArrow=open;endFill=0;fontFamily=VK Sans Display;fontColor=#212121;" edge="1" parent="1" target="QGTV7tFyquk40JRuXOC1-18">
          <mxGeometry relative="1" as="geometry">
            <mxPoint x="330" y="790.35" as="targetPoint" />
            <mxPoint x="164" y="230" as="sourcePoint" />
            <Array as="points">
              <mxPoint x="163" y="572.35" />
            </Array>
          </mxGeometry>
        </mxCell>
        <mxCell id="QGTV7tFyquk40JRuXOC1-36" style="rounded=0;orthogonalLoop=1;jettySize=auto;html=1;strokeColor=#7C8A9A;endArrow=oval;endFill=1;startArrow=oval;startFill=1;strokeWidth=2;labelBackgroundColor=none;fontFamily=VK Sans Display;fontColor=#212121;" edge="1" parent="1">
          <mxGeometry relative="1" as="geometry">
            <mxPoint x="741" y="548.35" as="sourcePoint" />
            <mxPoint x="741" y="336.35" as="targetPoint" />
          </mxGeometry>
        </mxCell>
        <mxCell id="QGTV7tFyquk40JRuXOC1-37" style="rounded=0;orthogonalLoop=1;jettySize=auto;html=1;strokeColor=#7C8A9A;endArrow=oval;endFill=1;startArrow=oval;startFill=1;strokeWidth=2;labelBackgroundColor=none;fontFamily=VK Sans Display;fontColor=#212121;" edge="1" parent="1">
          <mxGeometry relative="1" as="geometry">
            <mxPoint x="398.41" y="249.35000000000002" as="sourcePoint" />
            <mxPoint x="398.41" y="217.35000000000002" as="targetPoint" />
          </mxGeometry>
        </mxCell>
        <mxCell id="QGTV7tFyquk40JRuXOC1-38" style="rounded=0;orthogonalLoop=1;jettySize=auto;html=1;strokeColor=#7C8A9A;endArrow=oval;endFill=1;startArrow=oval;startFill=1;strokeWidth=2;labelBackgroundColor=none;fontFamily=VK Sans Display;fontColor=#212121;" edge="1" parent="1">
          <mxGeometry relative="1" as="geometry">
            <mxPoint x="491" y="248.35000000000002" as="sourcePoint" />
            <mxPoint x="491" y="216.35000000000002" as="targetPoint" />
          </mxGeometry>
        </mxCell>
        <mxCell id="QGTV7tFyquk40JRuXOC1-39" style="rounded=0;orthogonalLoop=1;jettySize=auto;html=1;strokeColor=#7C8A9A;endArrow=oval;endFill=1;startArrow=oval;startFill=1;strokeWidth=2;labelBackgroundColor=none;fontFamily=VK Sans Display;fontColor=#212121;" edge="1" parent="1">
          <mxGeometry relative="1" as="geometry">
            <mxPoint x="822" y="488.35" as="sourcePoint" />
            <mxPoint x="822" y="336.35" as="targetPoint" />
          </mxGeometry>
        </mxCell>
        <mxCell id="QGTV7tFyquk40JRuXOC1-40" style="rounded=0;orthogonalLoop=1;jettySize=auto;html=1;strokeColor=#7C8A9A;endArrow=oval;endFill=1;startArrow=oval;startFill=1;strokeWidth=2;labelBackgroundColor=none;entryX=0.664;entryY=1.007;entryDx=0;entryDy=0;entryPerimeter=0;fontFamily=VK Sans Display;fontColor=#212121;" edge="1" parent="1">
          <mxGeometry relative="1" as="geometry">
            <mxPoint x="792" y="548.35" as="sourcePoint" />
            <mxPoint x="792" y="336.35" as="targetPoint" />
          </mxGeometry>
        </mxCell>
        <mxCell id="QGTV7tFyquk40JRuXOC1-41" style="rounded=0;orthogonalLoop=1;jettySize=auto;html=1;strokeColor=#7C8A9A;endArrow=oval;endFill=1;startArrow=oval;startFill=1;strokeWidth=2;labelBackgroundColor=none;fontFamily=VK Sans Display;fontColor=#212121;" edge="1" parent="1">
          <mxGeometry relative="1" as="geometry">
            <mxPoint x="1146" y="248.35000000000002" as="sourcePoint" />
            <mxPoint x="1146" y="216.35000000000002" as="targetPoint" />
          </mxGeometry>
        </mxCell>
        <mxCell id="QGTV7tFyquk40JRuXOC1-42" style="rounded=0;orthogonalLoop=1;jettySize=auto;html=1;strokeColor=#7C8A9A;endArrow=oval;endFill=1;startArrow=oval;startFill=1;strokeWidth=2;labelBackgroundColor=none;fontFamily=VK Sans Display;fontColor=#212121;" edge="1" parent="1">
          <mxGeometry relative="1" as="geometry">
            <mxPoint x="1251" y="248.35000000000002" as="sourcePoint" />
            <mxPoint x="1251" y="216.35000000000002" as="targetPoint" />
          </mxGeometry>
        </mxCell>
        <mxCell id="QGTV7tFyquk40JRuXOC1-43" value="&lt;font&gt;&lt;span style=&quot;font-size: 18px;&quot;&gt;High-IOPS&lt;/span&gt;&lt;/font&gt;" style="rounded=1;whiteSpace=wrap;html=1;arcSize=3;strokeColor=none;fillColor=#F6F7F9;labelBackgroundColor=none;fontFamily=VK Sans Display;fontColor=#212121;" vertex="1" parent="1">
          <mxGeometry x="1310" y="252.35" width="108" height="80" as="geometry" />
        </mxCell>
        <mxCell id="QGTV7tFyquk40JRuXOC1-44" style="rounded=0;orthogonalLoop=1;jettySize=auto;html=1;strokeColor=#7C8A9A;endArrow=oval;endFill=1;startArrow=oval;startFill=1;strokeWidth=2;labelBackgroundColor=none;fontFamily=VK Sans Display;fontColor=#212121;" edge="1" parent="1">
          <mxGeometry relative="1" as="geometry">
            <mxPoint x="1342" y="248.35000000000002" as="sourcePoint" />
            <mxPoint x="1342" y="216.35000000000002" as="targetPoint" />
          </mxGeometry>
        </mxCell>
        <mxCell id="QGTV7tFyquk40JRuXOC1-45" style="rounded=0;orthogonalLoop=1;jettySize=auto;html=1;strokeColor=#7C8A9A;endArrow=oval;endFill=1;startArrow=oval;startFill=1;strokeWidth=2;labelBackgroundColor=none;fontFamily=VK Sans Display;fontColor=#212121;" edge="1" parent="1">
          <mxGeometry relative="1" as="geometry">
            <mxPoint x="1380" y="248.35000000000002" as="sourcePoint" />
            <mxPoint x="1380" y="156.35000000000002" as="targetPoint" />
          </mxGeometry>
        </mxCell>
        <mxCell id="QGTV7tFyquk40JRuXOC1-46" value="&lt;font&gt;&lt;span style=&quot;font-size: 18px;&quot;&gt;Сетевые узлы&lt;/span&gt;&lt;/font&gt;" style="rounded=1;whiteSpace=wrap;html=1;arcSize=3;strokeColor=none;fillColor=#E3EAFF;labelBackgroundColor=none;fontFamily=VK Sans Display;fontColor=#212121;" vertex="1" parent="1">
          <mxGeometry x="624" y="252.35000000000002" width="90" height="80" as="geometry" />
        </mxCell>
        <mxCell id="QGTV7tFyquk40JRuXOC1-47" style="rounded=0;orthogonalLoop=1;jettySize=auto;html=1;strokeColor=#7C8A9A;endArrow=oval;endFill=1;startArrow=oval;startFill=1;strokeWidth=2;labelBackgroundColor=none;fontFamily=VK Sans Display;fontColor=#212121;" edge="1" parent="1">
          <mxGeometry relative="1" as="geometry">
            <mxPoint x="684" y="248.5" as="sourcePoint" />
            <mxPoint x="684" y="96.5" as="targetPoint" />
          </mxGeometry>
        </mxCell>
        <mxCell id="QGTV7tFyquk40JRuXOC1-48" value="&lt;font style=&quot;font-size: 18px;&quot;&gt;Ceph External (VLAN/Subnet)&lt;/font&gt;" style="rounded=1;whiteSpace=wrap;html=1;strokeColor=none;fillColor=#F6F7F9;labelBackgroundColor=none;fontFamily=VK Sans Display;fontColor=#212121;" vertex="1" parent="1">
          <mxGeometry x="360" y="112.35000000000002" width="1060" height="40" as="geometry" />
        </mxCell>
        <mxCell id="QGTV7tFyquk40JRuXOC1-49" value="&lt;font style=&quot;font-size: 18px;&quot;&gt;Management (VLAN/Subnet)&lt;/font&gt;" style="rounded=1;whiteSpace=wrap;html=1;strokeColor=none;fillColor=#F6F7F9;labelBackgroundColor=none;fontFamily=VK Sans Display;fontColor=#212121;" vertex="1" parent="1">
          <mxGeometry x="360" y="172.35000000000002" width="1060" height="40" as="geometry" />
        </mxCell>
        <mxCell id="QGTV7tFyquk40JRuXOC1-50" style="rounded=0;orthogonalLoop=1;jettySize=auto;html=1;strokeColor=#7C8A9A;endArrow=oval;endFill=1;startArrow=oval;startFill=1;strokeWidth=2;labelBackgroundColor=none;fontFamily=VK Sans Display;fontColor=#212121;" edge="1" parent="1">
          <mxGeometry relative="1" as="geometry">
            <mxPoint x="653" y="248.35000000000002" as="sourcePoint" />
            <mxPoint x="653" y="216.35000000000002" as="targetPoint" />
          </mxGeometry>
        </mxCell>
        <mxCell id="QGTV7tFyquk40JRuXOC1-51" value="&lt;font&gt;&lt;span style=&quot;font-size: 18px;&quot;&gt;Узлы прикладных сервисов&lt;/span&gt;&lt;/font&gt;" style="rounded=1;whiteSpace=wrap;html=1;arcSize=3;strokeColor=none;fillColor=#F6F7F9;labelBackgroundColor=none;fontFamily=VK Sans Display;fontColor=#212121;" vertex="1" parent="1">
          <mxGeometry x="922" y="251.35000000000002" width="140" height="80" as="geometry" />
        </mxCell>
        <mxCell id="QGTV7tFyquk40JRuXOC1-52" style="rounded=0;orthogonalLoop=1;jettySize=auto;html=1;strokeColor=#7C8A9A;endArrow=oval;endFill=1;startArrow=oval;startFill=1;strokeWidth=2;labelBackgroundColor=none;fontFamily=VK Sans Display;fontColor=#212121;" edge="1" parent="1">
          <mxGeometry relative="1" as="geometry">
            <mxPoint x="993" y="247.35000000000002" as="sourcePoint" />
            <mxPoint x="993" y="215" as="targetPoint" />
          </mxGeometry>
        </mxCell>
        <mxCell id="QGTV7tFyquk40JRuXOC1-53" value="" style="shape=image;verticalLabelPosition=bottom;labelBackgroundColor=default;verticalAlign=top;aspect=fixed;imageAspect=0;image=data:image/svg+xml,PHN2ZyB4bWxucz0iaHR0cDovL3d3dy53My5vcmcvMjAwMC9zdmciIGZpbGw9Im5vbmUiIHZpZXdCb3g9IjAgMCAzMiAzMiIgaGVpZ2h0PSIzMiIgd2lkdGg9IjMyIj4mI3hhOzxwYXRoIGZpbGw9IiMwMDc3RkYiIGQ9Ik0zLjMxNDI4IDE2QzMuMzE0MjggOC45OTM4NyA4Ljk5Mzg3IDMuMzE0MjggMTYgMy4zMTQyOEMyMy4wMDYxIDMuMzE0MjggMjguNjg1NyA4Ljk5Mzg3IDI4LjY4NTcgMTZDMjguNjg1NyAyMy4wMDYxIDIzLjAwNjEgMjguNjg1NyAxNiAyOC42ODU3QzguOTkzODcgMjguNjg1NyAzLjMxNDI4IDIzLjAwNjEgMy4zMTQyOCAxNlpNMTYgMS4yNTcxNEM3Ljg1Nzc0IDEuMjU3MTQgMS4yNTcxNCA3Ljg1Nzc0IDEuMjU3MTQgMTZDMS4yNTcxNCAyNC4xNDIzIDcuODU3NzQgMzAuNzQyOSAxNiAzMC43NDI5QzI0LjE0MjMgMzAuNzQyOSAzMC43NDI5IDI0LjE0MjMgMzAuNzQyOSAxNkMzMC43NDI5IDcuODU3NzQgMjQuMTQyMyAxLjI1NzE0IDE2IDEuMjU3MTRaTTE5LjUxNzMgNy4zMjYyNUMxOS44NzQzIDcuNjYxMSAxOS44ODgxIDguMjE3NTYgMTkuNTQ4MSA4LjU2OTE1QzE5LjIwOCA4LjkyMDczIDE4LjY0MjggOC45MzQzMSAxOC4yODU3IDguNTk5NDZMMTYuODkyOSA3LjUwMTgzVjE4LjkzMDRMMTYuODkyOCAxOC45MzlWMjQuNDk4MkwxOC4yODU3IDIzLjQwMDVDMTguNjQyOCAyMy4wNjU3IDE5LjIwOCAyMy4wNzkzIDE5LjU0OCAyMy40MzA5QzE5Ljg4ODEgMjMuNzgyNCAxOS44NzQzIDI0LjMzODkgMTkuNTE3MyAyNC42NzM3TDE2LjYxNTggMjcuMTg2MUMxNi4yNzA5IDI3LjUwOTQgMTUuNzI5MSAyNy41MDk0IDE1LjM4NDIgMjcuMTg2MUwxMi40ODI4IDI0LjY3MzdDMTIuMTI1NyAyNC4zMzg5IDEyLjExMTkgMjMuNzgyNCAxMi40NTIgMjMuNDMwOUMxMi43OTIgMjMuMDc5MyAxMy4zNTcyIDIzLjA2NTcgMTMuNzE0MyAyMy40MDA1TDE1LjEwNzEgMjQuNDk4MkwxNS4xMDcxIDEzLjA2OTZMMTUuMTA3MiAxMy4wNjA5VjcuNTAxODNMMTMuNzE0MyA4LjU5OTQ2QzEzLjM1NzIgOC45MzQzMSAxMi43OTIgOC45MjA3MyAxMi40NTIgOC41NjkxNUMxMi4xMTE5IDguMjE3NTYgMTIuMTI1NyA3LjY2MTEgMTIuNDgyOCA3LjMyNjI1TDE1LjM4NDMgNC44MTM5NUMxNS43MjkxIDQuNDkwNTkgMTYuMjcxIDQuNDkwNTkgMTYuNjE1OCA0LjgxMzk1TDE5LjUxNzMgNy4zMjYyNVpNMTAuMDk3NSAxOS45MTM4QzEwLjQ0OTEgMjAuMjUzOSAxMS4wMDU2IDIwLjI0MDEgMTEuMzQwNCAxOS44ODNMMTMuODUyNyAxNi45ODE2QzE0LjE3NjEgMTYuNjM2NyAxNC4xNzYxIDE2LjA5NDkgMTMuODUyNyAxNS43NUwxMS4zNDA0IDEyLjg0ODVDMTEuMDA1NiAxMi40OTE0IDEwLjQ0OTEgMTIuNDc3NyAxMC4wOTc1IDEyLjgxNzdDOS43NDU5NCAxMy4xNTc4IDkuNzMyMzYgMTMuNzIzIDEwLjA2NzIgMTQuMDgwMUwxMS4xNjQ4IDE1LjQ3MjlINS40NTA1NEM0Ljk2NTAyIDE1LjQ3MjkgNC41NzE0MiAxNS44NzI3IDQuNTcxNDIgMTYuMzY1OEM0LjU3MTQyIDE2Ljg1ODkgNC45NjUwMSAxNy4yNTg3IDUuNDUwNTQgMTcuMjU4N0wxMS4xNjQ4IDE3LjI1ODdMMTAuMDY3MiAxOC42NTE1QzkuNzMyMzYgMTkuMDA4NiA5Ljc0NTk0IDE5LjU3MzcgMTAuMDk3NSAxOS45MTM4Wk0yMC42NjM0IDEyLjg0ODVDMjAuOTk4MiAxMi40OTE0IDIxLjU1NDcgMTIuNDc3NyAyMS45MDYzIDEyLjgxNzdDMjIuMjU3OSAxMy4xNTc4IDIyLjI3MTUgMTMuNzIzIDIxLjkzNjYgMTQuMDhMMjAuODM5IDE1LjQ3MjlIMjYuNTUzM0MyNy4wMzg4IDE1LjQ3MjkgMjcuNDMyNCAxNS44NzI2IDI3LjQzMjQgMTYuMzY1OEMyNy40MzI0IDE2Ljg1ODkgMjcuMDM4OCAxNy4yNTg2IDI2LjU1MzMgMTcuMjU4NkgyMC44MzlMMjEuOTM2NiAxOC42NTE1QzIyLjI3MTUgMTkuMDA4NiAyMi4yNTc5IDE5LjU3MzcgMjEuOTA2MyAxOS45MTM4QzIxLjU1NDcgMjAuMjUzOSAyMC45OTgyIDIwLjI0MDEgMjAuNjYzNCAxOS44ODNMMTguMTUxMSAxNi45ODE1QzE3LjgyNzcgMTYuNjM2NyAxNy44Mjc3IDE2LjA5NDggMTguMTUxMSAxNS43NUwyMC42NjM0IDEyLjg0ODVaIiBjbGlwLXJ1bGU9ImV2ZW5vZGQiIGZpbGwtcnVsZT0iZXZlbm9kZCIvPiYjeGE7PC9zdmc+;fontFamily=VK Sans Display;fontColor=#212121;" vertex="1" parent="1">
          <mxGeometry x="140" y="172.35" width="50" height="50" as="geometry" />
        </mxCell>
      </root>
    </mxGraphModel>
  </diagram>
</mxfile>
